<?xml version="1.0" encoding="utf-8"?>
<svg style="fill-rule:evenodd;clip-rule:evenodd;stroke-linecap:round;stroke-linejoin:round;" version="1.1" viewBox="0 0 380 220" xmlns="http://www.w3.org/2000/svg">
  <g id="Layer 1" transform="matrix(0.433801, 0, 0, 0.433801, -262.341614, -173.7229)" style="">
    <path d="M 675.748 471.973 C 677.112 463.875 685.942 457.714 694.388 459.82 C 697.534 460.605 700.27 462.44 702.394 464.853 C 703.988 466.663 702.917 469.724 700.217 467.68 C 698.714 466.543 697.134 465.369 695.736 464.574 C 689.643 461.108 680.482 463.001 679.307 474.672 C 678.804 479.676 681.432 483.739 685.077 486.259 C 687.523 487.95 681.509 489.006 679.151 486.29 C 676.189 482.878 674.719 478.084 675.748 471.973 Z" opacity="1" style="fill: rgb(183, 183, 183);"/>
    <path d="M 687.71 475.358 C 688.433 471.027 692.413 468.362 696.598 469.406 C 697.458 469.62 698.26 469.975 698.986 470.441 L 697.227 472.143 C 690.339 471.606 689.88 482.66 687.928 479.084 C 687.589 477.895 687.498 476.626 687.71 475.358 Z" opacity="1" style="fill: rgb(183, 183, 183);"/>
    <path d="M 687.402 497.433 C 675.291 502.182 673.12 485.536 678.888 483.555 C 681.033 487.114 683.88 485.939 686.348 484.253 C 689.884 482.631 697.678 493.404 687.402 497.433 Z M 687.036 487.105 C 685.855 488.743 683.113 491.533 680.967 487.974 C 679.625 485.945 675.803 496.143 684.924 495.194 C 691.087 494.553 690.704 486.673 687.036 487.105 Z" opacity="1" style="fill: rgb(183, 183, 183);"/>
    <path d="M 844.826 484.184 L 840.077 478.381 C 843.801 449.648 847.041 418.454 844.099 414.958 C 842 412.465 830.527 422.159 818.11 434.042 L 815.921 429.375 C 829.83 415.446 843.943 403.643 847.268 409.187 C 851.984 417.05 848.594 453.986 844.826 484.184 Z" opacity="1" style="fill: rgb(183, 183, 183);"/>
    <path d="M 824.316 463.496 L 819.267 460.411 C 812.989 427.928 804.175 386.308 799.902 384.428 C 796.666 383.005 786.929 407.035 778.393 430.228 L 775.017 424.496 C 784.737 400.696 796.78 375.085 802.234 378.991 C 810.006 384.556 819.107 432.27 824.316 463.496 Z" opacity="1" style="fill: rgb(183, 183, 183);"/>
    <path d="M 785.23 439.091 L 784.8 446.223 C 768.922 418.761 748.297 384.701 743.811 384.946 C 740.559 385.124 739.01 409.394 738.275 433.892 L 733.438 431.561 C 734.156 404.683 736.342 376.377 742.391 377.444 C 750.586 378.889 770.728 412.792 785.23 439.091 Z" opacity="1" style="fill: rgb(183, 183, 183);"/>
    <path d="M 860.612 635.894 C 839.395 670.687 801.568 713.874 703.541 723.254 C 629.237 730.365 588.751 655.226 610.707 605.679 C 631.737 558.222 672.41 577.819 687.896 547.031 C 689.356 544.127 689.446 539.112 689.145 532.797 L 686.768 523.587 L 686.056 512.744 L 688.042 508.107 C 688.125 490.643 691.371 471.368 707.257 458.134 L 723.699 478.412 L 740.325 470.046 L 753.715 451.495 L 751.119 442.688 C 754.883 442.331 758.866 442.102 763.08 442.008 C 770.377 441.846 777.395 442.467 784.113 443.784 C 784.113 443.784 788.523 420.431 804.698 425.472 C 824.961 431.787 812.585 454.297 812.854 454.449 C 871.472 487.575 895.229 579.13 860.612 635.894 Z M 767.706 447.38 C 763.429 447.297 759.391 447.353 755.581 447.537 L 753.239 456.407 L 744.157 466.465 L 725.894 480.21 L 709.638 461.788 C 695.778 473.264 692.844 489.965 692.715 505.829 L 686.485 512.761 L 687.951 525.351 L 693.618 539.311 C 693.37 542.334 692.819 544.893 691.776 546.846 C 669.035 589.431 636.303 558.72 616.414 607.238 C 597.782 652.687 626.156 719.615 692.164 719.587 C 758.174 719.56 834.003 685.694 861.262 626.302 C 882.911 579.131 865.429 525.297 855.425 505.405 C 844.011 482.712 829.603 465.962 809.601 456.436 C 809.601 456.436 826.425 430.983 804.359 425.799 C 782.402 420.641 786.328 449.18 786.328 449.18 C 780.608 448.188 774.181 447.505 767.706 447.38 Z" opacity="1" style="fill: rgb(183, 183, 183);"/>
    <path d="M 716.232 659.051 C 717.675 662.691 705.361 667 705.361 667 C 705.361 667 716.758 692.518 714.813 695.965 C 710.194 704.149 681.741 709.305 677.924 708.112 C 671.866 706.216 661.427 683.425 661.427 683.425 C 661.427 683.425 649.405 688.824 648.172 683.769 C 647.49 680.968 658.579 676.2 658.579 676.2 L 701.966 659.968 C 701.966 659.968 714.315 654.217 716.232 659.051 Z M 700.634 668.591 C 700.634 668.591 663.732 680.31 665.707 683.054 C 668.115 686.403 674.463 701.796 678.971 704.414 C 683.923 707.29 709.278 699.192 711.408 696.419 C 713.813 693.286 700.634 668.591 700.634 668.591 Z" opacity="1" style="fill: rgb(183, 183, 183);"/>
    <path d="M 755.198 642.218 C 756.523 645.265 746.211 649.296 746.211 649.296 C 746.211 649.296 756.585 670.616 755.035 673.601 C 751.351 680.69 727.391 685.928 724.124 685.03 C 718.939 683.604 709.454 664.57 709.454 664.57 C 709.454 664.57 699.42 669.517 698.234 665.263 C 697.577 662.906 706.041 658.196 706.041 658.196 L 743.512 642.313 C 743.512 642.313 753.439 638.172 755.198 642.218 Z M 741.442 651.07 C 741.442 651.07 711.32 661.856 713.069 664.127 C 715.204 666.896 720.684 679.399 724.578 681.485 C 728.854 683.776 750.436 676.511 752.163 674.09 C 754.112 671.358 741.442 651.07 741.442 651.07 Z" opacity="1" style="fill: rgb(183, 183, 183);"/>
    <path d="M 689.186 621.046 C 683.285 623.236 678.057 619.83 675.735 613.573 C 673.413 607.317 674.876 600.578 680.776 598.388 C 686.677 596.198 693.377 599.061 695.699 605.317 C 698.021 611.574 695.086 618.856 689.186 621.046 Z M 692.138 606.171 C 691.529 604.532 690.673 603.226 689.614 602.323 C 687.885 600.85 685.614 600.447 682.991 601.421 C 678.758 602.992 676.622 607.757 678.221 612.065 C 679.819 616.373 684.548 618.591 688.781 617.02 C 693.014 615.449 693.736 610.479 692.138 606.171 Z" opacity="1" style="fill: rgb(183, 183, 183);"/>
    <path d="M 616.595 640.352 C 611.761 642.146 606.167 644.069 605.759 631.601 C 605.351 619.132 606.516 619.206 611.513 617.964 C 614.573 617.203 618.851 619.737 621.026 625.598 C 623.202 631.46 621.428 638.558 616.595 640.352 Z M 618.759 628.597 C 617.096 624.115 616.292 621.83 614.511 621.68 C 612.531 621.513 610.318 624.8 610.617 629.982 C 611.013 636.817 610.683 639.759 614.803 638.23 C 618.921 636.701 620.423 633.078 618.759 628.597 Z" opacity="1" style="fill: rgb(183, 183, 183);"/>
    <path d="M 791.42 478.949 C 791.42 477.611 790.282 476.527 788.878 476.527 C 787.475 476.527 786.336 477.611 786.336 478.949 C 786.336 480.286 787.475 481.37 788.878 481.37 C 790.282 481.37 791.42 480.286 791.42 478.949 Z" opacity="1" fill="#ffffff" transform="matrix(0.937511, -0.347955, 0.347955, 0.937511, -117.356513, 304.422929)"/>
    <path d="M 756.205 446.556 C 760.661 453.778 728.895 490.978 719.769 478.938 C 713.926 471.228 677.659 410.663 684.544 402.474 C 689.028 397.138 752.542 440.616 756.205 446.556 Z M 688.89 408.156 C 685.555 410.749 713.756 469.016 722.196 475.647 C 730.744 482.364 758.549 452.446 750.126 445.564 C 739.461 436.85 692.7 405.193 688.89 408.156 Z" opacity="1" style="fill: rgb(183, 183, 183);"/>
    <path d="M 746.337 490.767 L 749.131 503.496 L 739.251 507.163 L 734.049 495.328 L 746.337 490.767 Z M 748.048 501.174 L 747.253 493.159 C 742.171 495.053 735.883 497.871 735.158 498.687 C 734.028 499.958 735.579 503.302 737.223 503.972 C 738.185 504.363 743.54 502.831 748.048 501.174 Z" opacity="1" style="fill: rgb(183, 183, 183);"/>
    <path d="M 804.367 511.49 C 801.65 517.784 763.677 532.256 757.989 524.558 C 750.231 514.06 740.461 487.49 745.062 485.421 C 761.128 478.196 782.875 470.678 793.509 471.217 C 799.43 471.516 810.618 497.013 804.367 511.49 Z M 789.504 474.496 C 778.868 473.958 751.48 483.452 749.175 487.793 C 745.88 493.994 751.994 511.195 759.751 521.693 C 765.44 529.391 798.456 515.093 801.173 508.799 C 807.425 494.323 795.424 474.796 789.504 474.496 Z" opacity="1" style="fill: rgb(183, 183, 183);"/>
    <path d="M 798.56 508.974 C 796.082 515.303 764.934 525.173 761.448 520.646 C 753.464 510.281 749.881 493.434 752.066 489.549 C 754.165 485.818 777.776 476.611 788.412 477.15 C 794.333 477.45 802.557 498.76 798.56 508.974 Z M 797.58 507.474 C 797.58 507.474 789.071 502.634 776.885 497.955 C 764.701 493.276 760.292 489.681 756.798 488.553 C 753.304 487.425 753.292 494.92 753.292 494.92 C 753.292 494.92 760.561 500.223 772.306 504.978 C 784.051 509.734 789.521 511.956 791.655 511.857 C 797.491 511.587 797.58 507.474 797.58 507.474 Z M 790.348 513.547 C 790.348 513.547 783.658 512.506 771.473 507.827 C 759.288 503.148 753.342 498.238 753.342 498.238 L 755.009 504.183 C 755.009 504.183 757.087 506.79 768.833 511.545 C 780.577 516.3 784.957 516.277 784.957 516.277 Z" opacity="1" style="fill: rgb(183, 183, 183);"/>
    <path d="M 834.46 472.174 L 802.656 486.114 L 795.104 474.893 L 824.796 464.077 Z M 825.43 466.544 C 817.617 469.806 799.351 475.765 799.351 475.765 C 799.351 475.765 800.401 477.229 801.283 478.558 C 802.166 479.888 803.561 482.906 803.561 482.906 C 806.917 482.29 822.582 474.222 829.621 470.67 C 831.134 469.905 826.874 465.941 825.43 466.544 Z" opacity="1" style="fill: rgb(183, 183, 183);"/>
    <path d="M 686.017 509.863 C 693.726 502.516 713.124 494.768 730.011 489.762 C 734.849 488.328 744.78 514.838 745.75 527.855 C 746.46 537.4 708.241 551.206 702.076 548.21 C 687.893 541.317 681.726 513.952 686.017 509.863 Z M 702.74 544.088 C 708.905 547.084 743.256 536.379 742.544 526.834 C 741.575 513.816 734.986 496.792 728.442 494.242 C 723.864 492.457 696.913 503.13 689.204 510.477 C 684.913 514.567 688.557 537.194 702.74 544.088 Z" opacity="1" style="fill: rgb(183, 183, 183);"/>
    <path d="M 691.762 511.774 C 699.471 504.428 723.371 496.001 727.396 497.459 C 731.587 498.977 739.863 514.083 740.575 527.146 C 740.886 532.853 710.841 545.693 704.834 542.514 C 695.141 537.381 687.471 515.864 691.762 511.774 Z M 738.275 524.754 C 735.094 524.33 731.532 522.743 719.347 518.064 C 707.162 513.385 703.257 511.076 699.763 509.948 C 696.269 508.82 691.983 514.28 691.983 514.28 C 691.983 514.28 703.022 520.332 714.768 525.088 C 726.512 529.844 730.715 531.307 732.849 531.208 C 738.686 530.938 740.195 525.01 738.275 524.754 Z M 730.668 532.9 C 730.668 532.9 726.119 532.615 713.934 527.936 C 701.749 523.257 692.107 516.561 692.107 516.561 L 692.225 520.769 C 692.225 520.769 699.548 526.898 711.293 531.655 C 723.039 536.41 725.578 535.832 725.578 535.832 Z" opacity="1" style="fill: rgb(183, 183, 183);"/>
    <path d="M 814.906 452.63 C 812.699 455.87 809.476 457.947 805.962 458.856 C 803.134 458.929 807.566 455.195 809.205 453.611 C 814.522 448.474 816.838 437.866 810.129 431.302 C 800.766 422.141 792.724 427.432 789.455 434.475 C 786.854 440.079 786.07 444.892 786.314 448.925 C 783.466 442.75 783.335 435.001 787.129 429.429 C 792.503 421.54 804.144 420.463 811.088 426.424 C 820.499 434.505 820.279 444.742 814.906 452.63 Z" opacity="1" style="fill: rgb(183, 183, 183);"/>
    <path d="M 792.233 439.239 C 794.895 435.33 800.06 434.75 803.77 437.942 C 804.903 438.917 805.768 440.131 806.349 441.458 C 806.595 442.158 806.64 442.722 806.095 442.99 C 803.569 444.235 798.019 438.026 795.115 442.476 C 793.886 444.361 795.893 449.013 795.064 451.279 C 794.478 452.881 793.167 450.962 792.119 449.691 C 790.217 446.484 790.151 442.296 792.233 439.239 Z" opacity="1" style="fill: rgb(183, 183, 183);"/>
  </g>
  <g id="g-1" transform="matrix(0.433801, 0, 0, 0.433801, -262.341614, 46.2771)" style="">
    <path d="M 675.748 471.973 C 677.112 463.875 685.942 457.714 694.388 459.82 C 697.534 460.605 700.27 462.44 702.394 464.853 C 703.988 466.663 702.917 469.724 700.217 467.68 C 698.714 466.543 697.134 465.369 695.736 464.574 C 689.643 461.108 680.482 463.001 679.307 474.672 C 678.804 479.676 681.432 483.739 685.077 486.259 C 687.523 487.95 681.509 489.006 679.151 486.29 C 676.189 482.878 674.719 478.084 675.748 471.973 Z" opacity="1" style="fill: rgb(183, 183, 183);"/>
    <path d="M 687.71 475.358 C 688.433 471.027 692.413 468.362 696.598 469.406 C 697.458 469.62 698.26 469.975 698.986 470.441 L 697.227 472.143 C 690.339 471.606 689.88 482.66 687.928 479.084 C 687.589 477.895 687.498 476.626 687.71 475.358 Z" opacity="1" style="fill: rgb(183, 183, 183);"/>
    <path d="M 687.402 497.433 C 675.291 502.182 673.12 485.536 678.888 483.555 C 681.033 487.114 683.88 485.939 686.348 484.253 C 689.884 482.631 697.678 493.404 687.402 497.433 Z M 687.036 487.105 C 685.855 488.743 683.113 491.533 680.967 487.974 C 679.625 485.945 675.803 496.143 684.924 495.194 C 691.087 494.553 690.704 486.673 687.036 487.105 Z" opacity="1" style="fill: rgb(183, 183, 183);"/>
    <path d="M 844.826 484.184 L 840.077 478.381 C 843.801 449.648 847.041 418.454 844.099 414.958 C 842 412.465 830.527 422.159 818.11 434.042 L 815.921 429.375 C 829.83 415.446 843.943 403.643 847.268 409.187 C 851.984 417.05 848.594 453.986 844.826 484.184 Z" opacity="1" style="fill: rgb(183, 183, 183);"/>
    <path d="M 824.316 463.496 L 819.267 460.411 C 812.989 427.928 804.175 386.308 799.902 384.428 C 796.666 383.005 786.929 407.035 778.393 430.228 L 775.017 424.496 C 784.737 400.696 796.78 375.085 802.234 378.991 C 810.006 384.556 819.107 432.27 824.316 463.496 Z" opacity="1" style="fill: rgb(183, 183, 183);"/>
    <path d="M 785.23 439.091 L 784.8 446.223 C 768.922 418.761 748.297 384.701 743.811 384.946 C 740.559 385.124 739.01 409.394 738.275 433.892 L 733.438 431.561 C 734.156 404.683 736.342 376.377 742.391 377.444 C 750.586 378.889 770.728 412.792 785.23 439.091 Z" opacity="1" style="fill: rgb(183, 183, 183);"/>
    <path d="M 860.612 635.894 C 839.395 670.687 801.568 713.874 703.541 723.254 C 629.237 730.365 588.751 655.226 610.707 605.679 C 631.737 558.222 672.41 577.819 687.896 547.031 C 689.356 544.127 689.446 539.112 689.145 532.797 L 686.768 523.587 L 686.056 512.744 L 688.042 508.107 C 688.125 490.643 691.371 471.368 707.257 458.134 L 723.699 478.412 L 740.325 470.046 L 753.715 451.495 L 751.119 442.688 C 754.883 442.331 758.866 442.102 763.08 442.008 C 770.377 441.846 777.395 442.467 784.113 443.784 C 784.113 443.784 788.523 420.431 804.698 425.472 C 824.961 431.787 812.585 454.297 812.854 454.449 C 871.472 487.575 895.229 579.13 860.612 635.894 Z M 767.706 447.38 C 763.429 447.297 759.391 447.353 755.581 447.537 L 753.239 456.407 L 744.157 466.465 L 725.894 480.21 L 709.638 461.788 C 695.778 473.264 692.844 489.965 692.715 505.829 L 686.485 512.761 L 687.951 525.351 L 693.618 539.311 C 693.37 542.334 692.819 544.893 691.776 546.846 C 669.035 589.431 636.303 558.72 616.414 607.238 C 597.782 652.687 626.156 719.615 692.164 719.587 C 758.174 719.56 834.003 685.694 861.262 626.302 C 882.911 579.131 865.429 525.297 855.425 505.405 C 844.011 482.712 829.603 465.962 809.601 456.436 C 809.601 456.436 826.425 430.983 804.359 425.799 C 782.402 420.641 786.328 449.18 786.328 449.18 C 780.608 448.188 774.181 447.505 767.706 447.38 Z" opacity="1" style="fill: rgb(183, 183, 183);"/>
    <path d="M 716.232 659.051 C 717.675 662.691 705.361 667 705.361 667 C 705.361 667 716.758 692.518 714.813 695.965 C 710.194 704.149 681.741 709.305 677.924 708.112 C 671.866 706.216 661.427 683.425 661.427 683.425 C 661.427 683.425 649.405 688.824 648.172 683.769 C 647.49 680.968 658.579 676.2 658.579 676.2 L 701.966 659.968 C 701.966 659.968 714.315 654.217 716.232 659.051 Z M 700.634 668.591 C 700.634 668.591 663.732 680.31 665.707 683.054 C 668.115 686.403 674.463 701.796 678.971 704.414 C 683.923 707.29 709.278 699.192 711.408 696.419 C 713.813 693.286 700.634 668.591 700.634 668.591 Z" opacity="1" style="fill: rgb(183, 183, 183);"/>
    <path d="M 755.198 642.218 C 756.523 645.265 746.211 649.296 746.211 649.296 C 746.211 649.296 756.585 670.616 755.035 673.601 C 751.351 680.69 727.391 685.928 724.124 685.03 C 718.939 683.604 709.454 664.57 709.454 664.57 C 709.454 664.57 699.42 669.517 698.234 665.263 C 697.577 662.906 706.041 658.196 706.041 658.196 L 743.512 642.313 C 743.512 642.313 753.439 638.172 755.198 642.218 Z M 741.442 651.07 C 741.442 651.07 711.32 661.856 713.069 664.127 C 715.204 666.896 720.684 679.399 724.578 681.485 C 728.854 683.776 750.436 676.511 752.163 674.09 C 754.112 671.358 741.442 651.07 741.442 651.07 Z" opacity="1" style="fill: rgb(183, 183, 183);"/>
    <path d="M 689.186 621.046 C 683.285 623.236 678.057 619.83 675.735 613.573 C 673.413 607.317 674.876 600.578 680.776 598.388 C 686.677 596.198 693.377 599.061 695.699 605.317 C 698.021 611.574 695.086 618.856 689.186 621.046 Z M 692.138 606.171 C 691.529 604.532 690.673 603.226 689.614 602.323 C 687.885 600.85 685.614 600.447 682.991 601.421 C 678.758 602.992 676.622 607.757 678.221 612.065 C 679.819 616.373 684.548 618.591 688.781 617.02 C 693.014 615.449 693.736 610.479 692.138 606.171 Z" opacity="1" style="fill: rgb(183, 183, 183);"/>
    <path d="M 616.595 640.352 C 611.761 642.146 606.167 644.069 605.759 631.601 C 605.351 619.132 606.516 619.206 611.513 617.964 C 614.573 617.203 618.851 619.737 621.026 625.598 C 623.202 631.46 621.428 638.558 616.595 640.352 Z M 618.759 628.597 C 617.096 624.115 616.292 621.83 614.511 621.68 C 612.531 621.513 610.318 624.8 610.617 629.982 C 611.013 636.817 610.683 639.759 614.803 638.23 C 618.921 636.701 620.423 633.078 618.759 628.597 Z" opacity="1" style="fill: rgb(183, 183, 183);"/>
    <path d="M 791.42 478.949 C 791.42 477.611 790.282 476.527 788.878 476.527 C 787.475 476.527 786.336 477.611 786.336 478.949 C 786.336 480.286 787.475 481.37 788.878 481.37 C 790.282 481.37 791.42 480.286 791.42 478.949 Z" opacity="1" fill="#ffffff" transform="matrix(0.937511, -0.347955, 0.347955, 0.937511, -117.356513, 304.422929)"/>
    <path d="M 756.205 446.556 C 760.661 453.778 728.895 490.978 719.769 478.938 C 713.926 471.228 677.659 410.663 684.544 402.474 C 689.028 397.138 752.542 440.616 756.205 446.556 Z M 688.89 408.156 C 685.555 410.749 713.756 469.016 722.196 475.647 C 730.744 482.364 758.549 452.446 750.126 445.564 C 739.461 436.85 692.7 405.193 688.89 408.156 Z" opacity="1" style="fill: rgb(183, 183, 183);"/>
    <path d="M 746.337 490.767 L 749.131 503.496 L 739.251 507.163 L 734.049 495.328 L 746.337 490.767 Z M 748.048 501.174 L 747.253 493.159 C 742.171 495.053 735.883 497.871 735.158 498.687 C 734.028 499.958 735.579 503.302 737.223 503.972 C 738.185 504.363 743.54 502.831 748.048 501.174 Z" opacity="1" style="fill: rgb(183, 183, 183);"/>
    <path d="M 804.367 511.49 C 801.65 517.784 763.677 532.256 757.989 524.558 C 750.231 514.06 740.461 487.49 745.062 485.421 C 761.128 478.196 782.875 470.678 793.509 471.217 C 799.43 471.516 810.618 497.013 804.367 511.49 Z M 789.504 474.496 C 778.868 473.958 751.48 483.452 749.175 487.793 C 745.88 493.994 751.994 511.195 759.751 521.693 C 765.44 529.391 798.456 515.093 801.173 508.799 C 807.425 494.323 795.424 474.796 789.504 474.496 Z" opacity="1" style="fill: rgb(183, 183, 183);"/>
    <path d="M 798.56 508.974 C 796.082 515.303 764.934 525.173 761.448 520.646 C 753.464 510.281 749.881 493.434 752.066 489.549 C 754.165 485.818 777.776 476.611 788.412 477.15 C 794.333 477.45 802.557 498.76 798.56 508.974 Z M 797.58 507.474 C 797.58 507.474 789.071 502.634 776.885 497.955 C 764.701 493.276 760.292 489.681 756.798 488.553 C 753.304 487.425 753.292 494.92 753.292 494.92 C 753.292 494.92 760.561 500.223 772.306 504.978 C 784.051 509.734 789.521 511.956 791.655 511.857 C 797.491 511.587 797.58 507.474 797.58 507.474 Z M 790.348 513.547 C 790.348 513.547 783.658 512.506 771.473 507.827 C 759.288 503.148 753.342 498.238 753.342 498.238 L 755.009 504.183 C 755.009 504.183 757.087 506.79 768.833 511.545 C 780.577 516.3 784.957 516.277 784.957 516.277 Z" opacity="1" style="fill: rgb(183, 183, 183);"/>
    <path d="M 834.46 472.174 L 802.656 486.114 L 795.104 474.893 L 824.796 464.077 Z M 825.43 466.544 C 817.617 469.806 799.351 475.765 799.351 475.765 C 799.351 475.765 800.401 477.229 801.283 478.558 C 802.166 479.888 803.561 482.906 803.561 482.906 C 806.917 482.29 822.582 474.222 829.621 470.67 C 831.134 469.905 826.874 465.941 825.43 466.544 Z" opacity="1" style="fill: rgb(183, 183, 183);"/>
    <path d="M 686.017 509.863 C 693.726 502.516 713.124 494.768 730.011 489.762 C 734.849 488.328 744.78 514.838 745.75 527.855 C 746.46 537.4 708.241 551.206 702.076 548.21 C 687.893 541.317 681.726 513.952 686.017 509.863 Z M 702.74 544.088 C 708.905 547.084 743.256 536.379 742.544 526.834 C 741.575 513.816 734.986 496.792 728.442 494.242 C 723.864 492.457 696.913 503.13 689.204 510.477 C 684.913 514.567 688.557 537.194 702.74 544.088 Z" opacity="1" style="fill: rgb(183, 183, 183);"/>
    <path d="M 691.762 511.774 C 699.471 504.428 723.371 496.001 727.396 497.459 C 731.587 498.977 739.863 514.083 740.575 527.146 C 740.886 532.853 710.841 545.693 704.834 542.514 C 695.141 537.381 687.471 515.864 691.762 511.774 Z M 738.275 524.754 C 735.094 524.33 731.532 522.743 719.347 518.064 C 707.162 513.385 703.257 511.076 699.763 509.948 C 696.269 508.82 691.983 514.28 691.983 514.28 C 691.983 514.28 703.022 520.332 714.768 525.088 C 726.512 529.844 730.715 531.307 732.849 531.208 C 738.686 530.938 740.195 525.01 738.275 524.754 Z M 730.668 532.9 C 730.668 532.9 726.119 532.615 713.934 527.936 C 701.749 523.257 692.107 516.561 692.107 516.561 L 692.225 520.769 C 692.225 520.769 699.548 526.898 711.293 531.655 C 723.039 536.41 725.578 535.832 725.578 535.832 Z" opacity="1" style="fill: rgb(183, 183, 183);"/>
    <path d="M 814.906 452.63 C 812.699 455.87 809.476 457.947 805.962 458.856 C 803.134 458.929 807.566 455.195 809.205 453.611 C 814.522 448.474 816.838 437.866 810.129 431.302 C 800.766 422.141 792.724 427.432 789.455 434.475 C 786.854 440.079 786.07 444.892 786.314 448.925 C 783.466 442.75 783.335 435.001 787.129 429.429 C 792.503 421.54 804.144 420.463 811.088 426.424 C 820.499 434.505 820.279 444.742 814.906 452.63 Z" opacity="1" style="fill: rgb(183, 183, 183);"/>
    <path d="M 792.233 439.239 C 794.895 435.33 800.06 434.75 803.77 437.942 C 804.903 438.917 805.768 440.131 806.349 441.458 C 806.595 442.158 806.64 442.722 806.095 442.99 C 803.569 444.235 798.019 438.026 795.115 442.476 C 793.886 444.361 795.893 449.013 795.064 451.279 C 794.478 452.881 793.167 450.962 792.119 449.691 C 790.217 446.484 790.151 442.296 792.233 439.239 Z" opacity="1" style="fill: rgb(183, 183, 183);"/>
  </g>
  <g id="g-4" transform="matrix(0.375683, 0.216901, -0.216901, 0.375683, 87.834053, -432.009399)" style="">
    <path d="M 675.748 471.973 C 677.112 463.875 685.942 457.714 694.388 459.82 C 697.534 460.605 700.27 462.44 702.394 464.853 C 703.988 466.663 702.917 469.724 700.217 467.68 C 698.714 466.543 697.134 465.369 695.736 464.574 C 689.643 461.108 680.482 463.001 679.307 474.672 C 678.804 479.676 681.432 483.739 685.077 486.259 C 687.523 487.95 681.509 489.006 679.151 486.29 C 676.189 482.878 674.719 478.084 675.748 471.973 Z" opacity="1" style="fill: rgb(183, 183, 183);"/>
    <path d="M 687.71 475.358 C 688.433 471.027 692.413 468.362 696.598 469.406 C 697.458 469.62 698.26 469.975 698.986 470.441 L 697.227 472.143 C 690.339 471.606 689.88 482.66 687.928 479.084 C 687.589 477.895 687.498 476.626 687.71 475.358 Z" opacity="1" style="fill: rgb(183, 183, 183);"/>
    <path d="M 687.402 497.433 C 675.291 502.182 673.12 485.536 678.888 483.555 C 681.033 487.114 683.88 485.939 686.348 484.253 C 689.884 482.631 697.678 493.404 687.402 497.433 Z M 687.036 487.105 C 685.855 488.743 683.113 491.533 680.967 487.974 C 679.625 485.945 675.803 496.143 684.924 495.194 C 691.087 494.553 690.704 486.673 687.036 487.105 Z" opacity="1" style="fill: rgb(183, 183, 183);"/>
    <path d="M 844.826 484.184 L 840.077 478.381 C 843.801 449.648 847.041 418.454 844.099 414.958 C 842 412.465 830.527 422.159 818.11 434.042 L 815.921 429.375 C 829.83 415.446 843.943 403.643 847.268 409.187 C 851.984 417.05 848.594 453.986 844.826 484.184 Z" opacity="1" style="fill: rgb(183, 183, 183);"/>
    <path d="M 824.316 463.496 L 819.267 460.411 C 812.989 427.928 804.175 386.308 799.902 384.428 C 796.666 383.005 786.929 407.035 778.393 430.228 L 775.017 424.496 C 784.737 400.696 796.78 375.085 802.234 378.991 C 810.006 384.556 819.107 432.27 824.316 463.496 Z" opacity="1" style="fill: rgb(183, 183, 183);"/>
    <path d="M 785.23 439.091 L 784.8 446.223 C 768.922 418.761 748.297 384.701 743.811 384.946 C 740.559 385.124 739.01 409.394 738.275 433.892 L 733.438 431.561 C 734.156 404.683 736.342 376.377 742.391 377.444 C 750.586 378.889 770.728 412.792 785.23 439.091 Z" opacity="1" style="fill: rgb(183, 183, 183);"/>
    <path d="M 860.612 635.894 C 839.395 670.687 801.568 713.874 703.541 723.254 C 629.237 730.365 588.751 655.226 610.707 605.679 C 631.737 558.222 672.41 577.819 687.896 547.031 C 689.356 544.127 689.446 539.112 689.145 532.797 L 686.768 523.587 L 686.056 512.744 L 688.042 508.107 C 688.125 490.643 691.371 471.368 707.257 458.134 L 723.699 478.412 L 740.325 470.046 L 753.715 451.495 L 751.119 442.688 C 754.883 442.331 758.866 442.102 763.08 442.008 C 770.377 441.846 777.395 442.467 784.113 443.784 C 784.113 443.784 788.523 420.431 804.698 425.472 C 824.961 431.787 812.585 454.297 812.854 454.449 C 871.472 487.575 895.229 579.13 860.612 635.894 Z M 767.706 447.38 C 763.429 447.297 759.391 447.353 755.581 447.537 L 753.239 456.407 L 744.157 466.465 L 725.894 480.21 L 709.638 461.788 C 695.778 473.264 692.844 489.965 692.715 505.829 L 686.485 512.761 L 687.951 525.351 L 693.618 539.311 C 693.37 542.334 692.819 544.893 691.776 546.846 C 669.035 589.431 636.303 558.72 616.414 607.238 C 597.782 652.687 626.156 719.615 692.164 719.587 C 758.174 719.56 834.003 685.694 861.262 626.302 C 882.911 579.131 865.429 525.297 855.425 505.405 C 844.011 482.712 829.603 465.962 809.601 456.436 C 809.601 456.436 826.425 430.983 804.359 425.799 C 782.402 420.641 786.328 449.18 786.328 449.18 C 780.608 448.188 774.181 447.505 767.706 447.38 Z" opacity="1" style="fill: rgb(183, 183, 183);"/>
    <path d="M 716.232 659.051 C 717.675 662.691 705.361 667 705.361 667 C 705.361 667 716.758 692.518 714.813 695.965 C 710.194 704.149 681.741 709.305 677.924 708.112 C 671.866 706.216 661.427 683.425 661.427 683.425 C 661.427 683.425 649.405 688.824 648.172 683.769 C 647.49 680.968 658.579 676.2 658.579 676.2 L 701.966 659.968 C 701.966 659.968 714.315 654.217 716.232 659.051 Z M 700.634 668.591 C 700.634 668.591 663.732 680.31 665.707 683.054 C 668.115 686.403 674.463 701.796 678.971 704.414 C 683.923 707.29 709.278 699.192 711.408 696.419 C 713.813 693.286 700.634 668.591 700.634 668.591 Z" opacity="1" style="fill: rgb(183, 183, 183);"/>
    <path d="M 755.198 642.218 C 756.523 645.265 746.211 649.296 746.211 649.296 C 746.211 649.296 756.585 670.616 755.035 673.601 C 751.351 680.69 727.391 685.928 724.124 685.03 C 718.939 683.604 709.454 664.57 709.454 664.57 C 709.454 664.57 699.42 669.517 698.234 665.263 C 697.577 662.906 706.041 658.196 706.041 658.196 L 743.512 642.313 C 743.512 642.313 753.439 638.172 755.198 642.218 Z M 741.442 651.07 C 741.442 651.07 711.32 661.856 713.069 664.127 C 715.204 666.896 720.684 679.399 724.578 681.485 C 728.854 683.776 750.436 676.511 752.163 674.09 C 754.112 671.358 741.442 651.07 741.442 651.07 Z" opacity="1" style="fill: rgb(183, 183, 183);"/>
    <path d="M 689.186 621.046 C 683.285 623.236 678.057 619.83 675.735 613.573 C 673.413 607.317 674.876 600.578 680.776 598.388 C 686.677 596.198 693.377 599.061 695.699 605.317 C 698.021 611.574 695.086 618.856 689.186 621.046 Z M 692.138 606.171 C 691.529 604.532 690.673 603.226 689.614 602.323 C 687.885 600.85 685.614 600.447 682.991 601.421 C 678.758 602.992 676.622 607.757 678.221 612.065 C 679.819 616.373 684.548 618.591 688.781 617.02 C 693.014 615.449 693.736 610.479 692.138 606.171 Z" opacity="1" style="fill: rgb(183, 183, 183);"/>
    <path d="M 616.595 640.352 C 611.761 642.146 606.167 644.069 605.759 631.601 C 605.351 619.132 606.516 619.206 611.513 617.964 C 614.573 617.203 618.851 619.737 621.026 625.598 C 623.202 631.46 621.428 638.558 616.595 640.352 Z M 618.759 628.597 C 617.096 624.115 616.292 621.83 614.511 621.68 C 612.531 621.513 610.318 624.8 610.617 629.982 C 611.013 636.817 610.683 639.759 614.803 638.23 C 618.921 636.701 620.423 633.078 618.759 628.597 Z" opacity="1" style="fill: rgb(183, 183, 183);"/>
    <path d="M 791.42 478.949 C 791.42 477.611 790.282 476.527 788.878 476.527 C 787.475 476.527 786.336 477.611 786.336 478.949 C 786.336 480.286 787.475 481.37 788.878 481.37 C 790.282 481.37 791.42 480.286 791.42 478.949 Z" opacity="1" fill="#ffffff" transform="matrix(0.937511, -0.347955, 0.347955, 0.937511, -117.356513, 304.422929)"/>
    <path d="M 756.205 446.556 C 760.661 453.778 728.895 490.978 719.769 478.938 C 713.926 471.228 677.659 410.663 684.544 402.474 C 689.028 397.138 752.542 440.616 756.205 446.556 Z M 688.89 408.156 C 685.555 410.749 713.756 469.016 722.196 475.647 C 730.744 482.364 758.549 452.446 750.126 445.564 C 739.461 436.85 692.7 405.193 688.89 408.156 Z" opacity="1" style="fill: rgb(183, 183, 183);"/>
    <path d="M 746.337 490.767 L 749.131 503.496 L 739.251 507.163 L 734.049 495.328 L 746.337 490.767 Z M 748.048 501.174 L 747.253 493.159 C 742.171 495.053 735.883 497.871 735.158 498.687 C 734.028 499.958 735.579 503.302 737.223 503.972 C 738.185 504.363 743.54 502.831 748.048 501.174 Z" opacity="1" style="fill: rgb(183, 183, 183);"/>
    <path d="M 804.367 511.49 C 801.65 517.784 763.677 532.256 757.989 524.558 C 750.231 514.06 740.461 487.49 745.062 485.421 C 761.128 478.196 782.875 470.678 793.509 471.217 C 799.43 471.516 810.618 497.013 804.367 511.49 Z M 789.504 474.496 C 778.868 473.958 751.48 483.452 749.175 487.793 C 745.88 493.994 751.994 511.195 759.751 521.693 C 765.44 529.391 798.456 515.093 801.173 508.799 C 807.425 494.323 795.424 474.796 789.504 474.496 Z" opacity="1" style="fill: rgb(183, 183, 183);"/>
    <path d="M 798.56 508.974 C 796.082 515.303 764.934 525.173 761.448 520.646 C 753.464 510.281 749.881 493.434 752.066 489.549 C 754.165 485.818 777.776 476.611 788.412 477.15 C 794.333 477.45 802.557 498.76 798.56 508.974 Z M 797.58 507.474 C 797.58 507.474 789.071 502.634 776.885 497.955 C 764.701 493.276 760.292 489.681 756.798 488.553 C 753.304 487.425 753.292 494.92 753.292 494.92 C 753.292 494.92 760.561 500.223 772.306 504.978 C 784.051 509.734 789.521 511.956 791.655 511.857 C 797.491 511.587 797.58 507.474 797.58 507.474 Z M 790.348 513.547 C 790.348 513.547 783.658 512.506 771.473 507.827 C 759.288 503.148 753.342 498.238 753.342 498.238 L 755.009 504.183 C 755.009 504.183 757.087 506.79 768.833 511.545 C 780.577 516.3 784.957 516.277 784.957 516.277 Z" opacity="1" style="fill: rgb(183, 183, 183);"/>
    <path d="M 834.46 472.174 L 802.656 486.114 L 795.104 474.893 L 824.796 464.077 Z M 825.43 466.544 C 817.617 469.806 799.351 475.765 799.351 475.765 C 799.351 475.765 800.401 477.229 801.283 478.558 C 802.166 479.888 803.561 482.906 803.561 482.906 C 806.917 482.29 822.582 474.222 829.621 470.67 C 831.134 469.905 826.874 465.941 825.43 466.544 Z" opacity="1" style="fill: rgb(183, 183, 183);"/>
    <path d="M 686.017 509.863 C 693.726 502.516 713.124 494.768 730.011 489.762 C 734.849 488.328 744.78 514.838 745.75 527.855 C 746.46 537.4 708.241 551.206 702.076 548.21 C 687.893 541.317 681.726 513.952 686.017 509.863 Z M 702.74 544.088 C 708.905 547.084 743.256 536.379 742.544 526.834 C 741.575 513.816 734.986 496.792 728.442 494.242 C 723.864 492.457 696.913 503.13 689.204 510.477 C 684.913 514.567 688.557 537.194 702.74 544.088 Z" opacity="1" style="fill: rgb(183, 183, 183);"/>
    <path d="M 691.762 511.774 C 699.471 504.428 723.371 496.001 727.396 497.459 C 731.587 498.977 739.863 514.083 740.575 527.146 C 740.886 532.853 710.841 545.693 704.834 542.514 C 695.141 537.381 687.471 515.864 691.762 511.774 Z M 738.275 524.754 C 735.094 524.33 731.532 522.743 719.347 518.064 C 707.162 513.385 703.257 511.076 699.763 509.948 C 696.269 508.82 691.983 514.28 691.983 514.28 C 691.983 514.28 703.022 520.332 714.768 525.088 C 726.512 529.844 730.715 531.307 732.849 531.208 C 738.686 530.938 740.195 525.01 738.275 524.754 Z M 730.668 532.9 C 730.668 532.9 726.119 532.615 713.934 527.936 C 701.749 523.257 692.107 516.561 692.107 516.561 L 692.225 520.769 C 692.225 520.769 699.548 526.898 711.293 531.655 C 723.039 536.41 725.578 535.832 725.578 535.832 Z" opacity="1" style="fill: rgb(183, 183, 183);"/>
    <path d="M 814.906 452.63 C 812.699 455.87 809.476 457.947 805.962 458.856 C 803.134 458.929 807.566 455.195 809.205 453.611 C 814.522 448.474 816.838 437.866 810.129 431.302 C 800.766 422.141 792.724 427.432 789.455 434.475 C 786.854 440.079 786.07 444.892 786.314 448.925 C 783.466 442.75 783.335 435.001 787.129 429.429 C 792.503 421.54 804.144 420.463 811.088 426.424 C 820.499 434.505 820.279 444.742 814.906 452.63 Z" opacity="1" style="fill: rgb(183, 183, 183);"/>
    <path d="M 792.233 439.239 C 794.895 435.33 800.06 434.75 803.77 437.942 C 804.903 438.917 805.768 440.131 806.349 441.458 C 806.595 442.158 806.64 442.722 806.095 442.99 C 803.569 444.235 798.019 438.026 795.115 442.476 C 793.886 444.361 795.893 449.013 795.064 451.279 C 794.478 452.881 793.167 450.962 792.119 449.691 C 790.217 446.484 790.151 442.296 792.233 439.239 Z" opacity="1" style="fill: rgb(183, 183, 183);"/>
  </g>
  <g id="g-5" transform="matrix(0.375683, 0.216901, -0.216901, 0.375683, 87.834274, -212.009415)" style="">
    <path d="M 675.748 471.973 C 677.112 463.875 685.942 457.714 694.388 459.82 C 697.534 460.605 700.27 462.44 702.394 464.853 C 703.988 466.663 702.917 469.724 700.217 467.68 C 698.714 466.543 697.134 465.369 695.736 464.574 C 689.643 461.108 680.482 463.001 679.307 474.672 C 678.804 479.676 681.432 483.739 685.077 486.259 C 687.523 487.95 681.509 489.006 679.151 486.29 C 676.189 482.878 674.719 478.084 675.748 471.973 Z" opacity="1" style="fill: rgb(183, 183, 183);"/>
    <path d="M 687.71 475.358 C 688.433 471.027 692.413 468.362 696.598 469.406 C 697.458 469.62 698.26 469.975 698.986 470.441 L 697.227 472.143 C 690.339 471.606 689.88 482.66 687.928 479.084 C 687.589 477.895 687.498 476.626 687.71 475.358 Z" opacity="1" style="fill: rgb(183, 183, 183);"/>
    <path d="M 687.402 497.433 C 675.291 502.182 673.12 485.536 678.888 483.555 C 681.033 487.114 683.88 485.939 686.348 484.253 C 689.884 482.631 697.678 493.404 687.402 497.433 Z M 687.036 487.105 C 685.855 488.743 683.113 491.533 680.967 487.974 C 679.625 485.945 675.803 496.143 684.924 495.194 C 691.087 494.553 690.704 486.673 687.036 487.105 Z" opacity="1" style="fill: rgb(183, 183, 183);"/>
    <path d="M 844.826 484.184 L 840.077 478.381 C 843.801 449.648 847.041 418.454 844.099 414.958 C 842 412.465 830.527 422.159 818.11 434.042 L 815.921 429.375 C 829.83 415.446 843.943 403.643 847.268 409.187 C 851.984 417.05 848.594 453.986 844.826 484.184 Z" opacity="1" style="fill: rgb(183, 183, 183);"/>
    <path d="M 824.316 463.496 L 819.267 460.411 C 812.989 427.928 804.175 386.308 799.902 384.428 C 796.666 383.005 786.929 407.035 778.393 430.228 L 775.017 424.496 C 784.737 400.696 796.78 375.085 802.234 378.991 C 810.006 384.556 819.107 432.27 824.316 463.496 Z" opacity="1" style="fill: rgb(183, 183, 183);"/>
    <path d="M 785.23 439.091 L 784.8 446.223 C 768.922 418.761 748.297 384.701 743.811 384.946 C 740.559 385.124 739.01 409.394 738.275 433.892 L 733.438 431.561 C 734.156 404.683 736.342 376.377 742.391 377.444 C 750.586 378.889 770.728 412.792 785.23 439.091 Z" opacity="1" style="fill: rgb(183, 183, 183);"/>
    <path d="M 860.612 635.894 C 839.395 670.687 801.568 713.874 703.541 723.254 C 629.237 730.365 588.751 655.226 610.707 605.679 C 631.737 558.222 672.41 577.819 687.896 547.031 C 689.356 544.127 689.446 539.112 689.145 532.797 L 686.768 523.587 L 686.056 512.744 L 688.042 508.107 C 688.125 490.643 691.371 471.368 707.257 458.134 L 723.699 478.412 L 740.325 470.046 L 753.715 451.495 L 751.119 442.688 C 754.883 442.331 758.866 442.102 763.08 442.008 C 770.377 441.846 777.395 442.467 784.113 443.784 C 784.113 443.784 788.523 420.431 804.698 425.472 C 824.961 431.787 812.585 454.297 812.854 454.449 C 871.472 487.575 895.229 579.13 860.612 635.894 Z M 767.706 447.38 C 763.429 447.297 759.391 447.353 755.581 447.537 L 753.239 456.407 L 744.157 466.465 L 725.894 480.21 L 709.638 461.788 C 695.778 473.264 692.844 489.965 692.715 505.829 L 686.485 512.761 L 687.951 525.351 L 693.618 539.311 C 693.37 542.334 692.819 544.893 691.776 546.846 C 669.035 589.431 636.303 558.72 616.414 607.238 C 597.782 652.687 626.156 719.615 692.164 719.587 C 758.174 719.56 834.003 685.694 861.262 626.302 C 882.911 579.131 865.429 525.297 855.425 505.405 C 844.011 482.712 829.603 465.962 809.601 456.436 C 809.601 456.436 826.425 430.983 804.359 425.799 C 782.402 420.641 786.328 449.18 786.328 449.18 C 780.608 448.188 774.181 447.505 767.706 447.38 Z" opacity="1" style="fill: rgb(183, 183, 183);"/>
    <path d="M 716.232 659.051 C 717.675 662.691 705.361 667 705.361 667 C 705.361 667 716.758 692.518 714.813 695.965 C 710.194 704.149 681.741 709.305 677.924 708.112 C 671.866 706.216 661.427 683.425 661.427 683.425 C 661.427 683.425 649.405 688.824 648.172 683.769 C 647.49 680.968 658.579 676.2 658.579 676.2 L 701.966 659.968 C 701.966 659.968 714.315 654.217 716.232 659.051 Z M 700.634 668.591 C 700.634 668.591 663.732 680.31 665.707 683.054 C 668.115 686.403 674.463 701.796 678.971 704.414 C 683.923 707.29 709.278 699.192 711.408 696.419 C 713.813 693.286 700.634 668.591 700.634 668.591 Z" opacity="1" style="fill: rgb(183, 183, 183);"/>
    <path d="M 755.198 642.218 C 756.523 645.265 746.211 649.296 746.211 649.296 C 746.211 649.296 756.585 670.616 755.035 673.601 C 751.351 680.69 727.391 685.928 724.124 685.03 C 718.939 683.604 709.454 664.57 709.454 664.57 C 709.454 664.57 699.42 669.517 698.234 665.263 C 697.577 662.906 706.041 658.196 706.041 658.196 L 743.512 642.313 C 743.512 642.313 753.439 638.172 755.198 642.218 Z M 741.442 651.07 C 741.442 651.07 711.32 661.856 713.069 664.127 C 715.204 666.896 720.684 679.399 724.578 681.485 C 728.854 683.776 750.436 676.511 752.163 674.09 C 754.112 671.358 741.442 651.07 741.442 651.07 Z" opacity="1" style="fill: rgb(183, 183, 183);"/>
    <path d="M 689.186 621.046 C 683.285 623.236 678.057 619.83 675.735 613.573 C 673.413 607.317 674.876 600.578 680.776 598.388 C 686.677 596.198 693.377 599.061 695.699 605.317 C 698.021 611.574 695.086 618.856 689.186 621.046 Z M 692.138 606.171 C 691.529 604.532 690.673 603.226 689.614 602.323 C 687.885 600.85 685.614 600.447 682.991 601.421 C 678.758 602.992 676.622 607.757 678.221 612.065 C 679.819 616.373 684.548 618.591 688.781 617.02 C 693.014 615.449 693.736 610.479 692.138 606.171 Z" opacity="1" style="fill: rgb(183, 183, 183);"/>
    <path d="M 616.595 640.352 C 611.761 642.146 606.167 644.069 605.759 631.601 C 605.351 619.132 606.516 619.206 611.513 617.964 C 614.573 617.203 618.851 619.737 621.026 625.598 C 623.202 631.46 621.428 638.558 616.595 640.352 Z M 618.759 628.597 C 617.096 624.115 616.292 621.83 614.511 621.68 C 612.531 621.513 610.318 624.8 610.617 629.982 C 611.013 636.817 610.683 639.759 614.803 638.23 C 618.921 636.701 620.423 633.078 618.759 628.597 Z" opacity="1" style="fill: rgb(183, 183, 183);"/>
    <path d="M 791.42 478.949 C 791.42 477.611 790.282 476.527 788.878 476.527 C 787.475 476.527 786.336 477.611 786.336 478.949 C 786.336 480.286 787.475 481.37 788.878 481.37 C 790.282 481.37 791.42 480.286 791.42 478.949 Z" opacity="1" fill="#ffffff" transform="matrix(0.937511, -0.347955, 0.347955, 0.937511, -117.356513, 304.422929)"/>
    <path d="M 756.205 446.556 C 760.661 453.778 728.895 490.978 719.769 478.938 C 713.926 471.228 677.659 410.663 684.544 402.474 C 689.028 397.138 752.542 440.616 756.205 446.556 Z M 688.89 408.156 C 685.555 410.749 713.756 469.016 722.196 475.647 C 730.744 482.364 758.549 452.446 750.126 445.564 C 739.461 436.85 692.7 405.193 688.89 408.156 Z" opacity="1" style="fill: rgb(183, 183, 183);"/>
    <path d="M 746.337 490.767 L 749.131 503.496 L 739.251 507.163 L 734.049 495.328 L 746.337 490.767 Z M 748.048 501.174 L 747.253 493.159 C 742.171 495.053 735.883 497.871 735.158 498.687 C 734.028 499.958 735.579 503.302 737.223 503.972 C 738.185 504.363 743.54 502.831 748.048 501.174 Z" opacity="1" style="fill: rgb(183, 183, 183);"/>
    <path d="M 804.367 511.49 C 801.65 517.784 763.677 532.256 757.989 524.558 C 750.231 514.06 740.461 487.49 745.062 485.421 C 761.128 478.196 782.875 470.678 793.509 471.217 C 799.43 471.516 810.618 497.013 804.367 511.49 Z M 789.504 474.496 C 778.868 473.958 751.48 483.452 749.175 487.793 C 745.88 493.994 751.994 511.195 759.751 521.693 C 765.44 529.391 798.456 515.093 801.173 508.799 C 807.425 494.323 795.424 474.796 789.504 474.496 Z" opacity="1" style="fill: rgb(183, 183, 183);"/>
    <path d="M 798.56 508.974 C 796.082 515.303 764.934 525.173 761.448 520.646 C 753.464 510.281 749.881 493.434 752.066 489.549 C 754.165 485.818 777.776 476.611 788.412 477.15 C 794.333 477.45 802.557 498.76 798.56 508.974 Z M 797.58 507.474 C 797.58 507.474 789.071 502.634 776.885 497.955 C 764.701 493.276 760.292 489.681 756.798 488.553 C 753.304 487.425 753.292 494.92 753.292 494.92 C 753.292 494.92 760.561 500.223 772.306 504.978 C 784.051 509.734 789.521 511.956 791.655 511.857 C 797.491 511.587 797.58 507.474 797.58 507.474 Z M 790.348 513.547 C 790.348 513.547 783.658 512.506 771.473 507.827 C 759.288 503.148 753.342 498.238 753.342 498.238 L 755.009 504.183 C 755.009 504.183 757.087 506.79 768.833 511.545 C 780.577 516.3 784.957 516.277 784.957 516.277 Z" opacity="1" style="fill: rgb(183, 183, 183);"/>
    <path d="M 834.46 472.174 L 802.656 486.114 L 795.104 474.893 L 824.796 464.077 Z M 825.43 466.544 C 817.617 469.806 799.351 475.765 799.351 475.765 C 799.351 475.765 800.401 477.229 801.283 478.558 C 802.166 479.888 803.561 482.906 803.561 482.906 C 806.917 482.29 822.582 474.222 829.621 470.67 C 831.134 469.905 826.874 465.941 825.43 466.544 Z" opacity="1" style="fill: rgb(183, 183, 183);"/>
    <path d="M 686.017 509.863 C 693.726 502.516 713.124 494.768 730.011 489.762 C 734.849 488.328 744.78 514.838 745.75 527.855 C 746.46 537.4 708.241 551.206 702.076 548.21 C 687.893 541.317 681.726 513.952 686.017 509.863 Z M 702.74 544.088 C 708.905 547.084 743.256 536.379 742.544 526.834 C 741.575 513.816 734.986 496.792 728.442 494.242 C 723.864 492.457 696.913 503.13 689.204 510.477 C 684.913 514.567 688.557 537.194 702.74 544.088 Z" opacity="1" style="fill: rgb(183, 183, 183);"/>
    <path d="M 691.762 511.774 C 699.471 504.428 723.371 496.001 727.396 497.459 C 731.587 498.977 739.863 514.083 740.575 527.146 C 740.886 532.853 710.841 545.693 704.834 542.514 C 695.141 537.381 687.471 515.864 691.762 511.774 Z M 738.275 524.754 C 735.094 524.33 731.532 522.743 719.347 518.064 C 707.162 513.385 703.257 511.076 699.763 509.948 C 696.269 508.82 691.983 514.28 691.983 514.28 C 691.983 514.28 703.022 520.332 714.768 525.088 C 726.512 529.844 730.715 531.307 732.849 531.208 C 738.686 530.938 740.195 525.01 738.275 524.754 Z M 730.668 532.9 C 730.668 532.9 726.119 532.615 713.934 527.936 C 701.749 523.257 692.107 516.561 692.107 516.561 L 692.225 520.769 C 692.225 520.769 699.548 526.898 711.293 531.655 C 723.039 536.41 725.578 535.832 725.578 535.832 Z" opacity="1" style="fill: rgb(183, 183, 183);"/>
    <path d="M 814.906 452.63 C 812.699 455.87 809.476 457.947 805.962 458.856 C 803.134 458.929 807.566 455.195 809.205 453.611 C 814.522 448.474 816.838 437.866 810.129 431.302 C 800.766 422.141 792.724 427.432 789.455 434.475 C 786.854 440.079 786.07 444.892 786.314 448.925 C 783.466 442.75 783.335 435.001 787.129 429.429 C 792.503 421.54 804.144 420.463 811.088 426.424 C 820.499 434.505 820.279 444.742 814.906 452.63 Z" opacity="1" style="fill: rgb(183, 183, 183);"/>
    <path d="M 792.233 439.239 C 794.895 435.33 800.06 434.75 803.77 437.942 C 804.903 438.917 805.768 440.131 806.349 441.458 C 806.595 442.158 806.64 442.722 806.095 442.99 C 803.569 444.235 798.019 438.026 795.115 442.476 C 793.886 444.361 795.893 449.013 795.064 451.279 C 794.478 452.881 793.167 450.962 792.119 449.691 C 790.217 446.484 790.151 442.296 792.233 439.239 Z" opacity="1" style="fill: rgb(183, 183, 183);"/>
  </g>
</svg>