<?xml version="1.0" encoding="utf-8"?>
<svg viewBox="0 0 112.662 113.491" xmlns="http://www.w3.org/2000/svg">
  <path d="M 11.567 21.515 C 29.182 -2.32 66.355 -1.875 84.142 4.177 C 101.93 10.23 102.735 23.261 105.684 48.867 C 108.634 74.47 101.684 101.356 83.896 108.339 C 66.108 115.323 27.371 116.748 11.967 90.588 C 4.443 77.812 4.303 31.343 11.567 21.515 Z M 41.296 69.185 C 46.988 78.645 64.769 76.841 69.522 74.952 C 78.803 71.264 81.536 61.434 79.535 53.014 C 78.315 47.888 75.893 40.104 69.857 38.631 C 66.916 37.915 51.616 32.767 42.205 43.193 C 38.324 47.492 37.742 63.278 41.296 69.185 Z" opacity="1" fill="#000000" style=""/>
  <path d="M 21.12 21.496 C 38.222 -1.642 63.565 6.348 80.835 12.224 C 98.106 18.1 96.619 24.754 99.482 49.613 C 102.345 74.473 98.106 97.198 80.835 103.978 C 63.565 110.758 32.55 111.147 17.594 85.748 C 10.289 73.343 14.067 31.039 21.12 21.496 Z M 41.592 68.978 C 47.119 78.163 65.23 77.986 69.845 76.153 C 78.856 72.572 81.025 61.453 79.083 53.279 C 77.899 48.301 75.91 39.773 70.049 38.345 C 67.194 37.649 51.611 33.62 42.476 43.743 C 38.708 47.918 38.142 63.243 41.592 68.978 Z" opacity="1" style="fill: rgb(208, 208, 208);"/>
  <path d="M 38.228 40.3 C 47.929 29.723 62.304 33.376 72.1 36.061 C 81.896 38.747 81.052 41.789 82.676 53.152 C 84.301 64.516 81.896 74.904 72.1 78.003 C 62.304 81.101 44.712 81.279 36.228 69.67 C 32.085 64 34.229 44.662 38.228 40.3 Z M 41.827 68.978 C 47.353 78.163 64.617 76.411 69.232 74.578 C 78.243 70.997 80.896 61.453 78.954 53.279 C 77.77 48.301 75.418 40.743 69.557 39.314 C 66.702 38.618 51.846 33.62 42.711 43.743 C 38.943 47.918 38.377 63.243 41.827 68.978 Z" opacity="1" fill="#000000" style=""/>
</svg>