<?xml version="1.0" encoding="utf-8"?>
<svg style="fill-rule:evenodd;clip-rule:evenodd;stroke-linecap:round;stroke-linejoin:round;" version="1.1" viewBox="0 0 1190.7 1190.73" xmlns="http://www.w3.org/2000/svg">
  <g id="Layer 1">
    <path d="M470.779+100.576C481.898+105.074+488.73+120.605+484.478+131.116C480.226+141.628+465.836+145.685+454.717+141.187C443.598+136.689+436.431+123.224+440.683+112.713C444.935+102.202+459.661+96.0782+470.779+100.576Z" opacity="1" fill="#000000"/>
    <path d="M466.039+106.141C481.697+112.974+483.41+124.386+477.621+131.32C472.488+137.467+459.037+145.337+473.006+143.026C480.526+141.782+452.798+149.341+446.806+146.917C440.69+144.443+436.702+115.054+439.547+123.584C442.423+132.208+443.237+122.942+443.768+119.716C445.232+110.815+456.396+101.933+466.039+106.141Z" opacity="1" fill="#dad57d"/>
    <path d="M463.78+117.067C469.725+119.472+472.836+125.643+470.73+130.851C468.623+136.059+462.096+138.331+456.15+135.926C450.205+133.521+447.094+127.349+449.201+122.142C451.307+116.934+457.835+114.662+463.78+117.067Z" opacity="1" fill="#000000"/>
    <path d="M458.382+115.625C464.327+118.03+467.438+124.201+465.332+129.409C463.225+134.617+456.697+136.889+450.752+134.483C444.807+132.078+441.696+125.907+443.802+120.699C445.909+115.491+452.437+113.219+458.382+115.625Z" opacity="1" fill="#dad57d"/>
    <path d="M1028.24+449.493C1023.14+434.345+1013.97+491.801+1023.43+505.903C1032.88+520.006+1064.87+520.006+1066.07+505.903C1067.28+491.801+1040.85+486.937+1028.24+449.493Z" opacity="1" fill="#000000"/>
    <path d="M1021.37+445.491C1016.27+430.344+1008.26+480.201+1017.72+494.304C1027.18+508.407+1058.9+519.431+1060.11+505.328C1061.31+491.226+1033.98+482.935+1021.37+445.491Z" opacity="1" fill="#79ae81"/>
    <path d="M807.571+576.304C808.649+550.346+840.471+551.103+921.743+551.103C1003.02+551.103+1054.74+545.722+1053.3+573.557C1051.24+613.404+1005.94+613.161+924.671+613.161C843.399+613.161+806.207+609.17+807.571+576.304Z" opacity="1" style="fill: rgba(0, 0, 0, 0.11);"/>
    <path d="M888.811+324.338C885.634+309.344+859.729+312.884+851.131+326.713C836.141+350.825+825.449+440.509+833.371+454.427C838.519+463.47+895.326+461.567+899.944+452.429C909.954+432.624+894.127+349.425+888.811+324.338Z" opacity="1" fill="#000000"/>
    <path d="M890.978+329.8C887.801+314.806+860.514+316.196+851.917+330.026C836.926+354.137+831.608+441.228+837.44+449.59C844.213+459.303+893.651+457.439+896.614+449.647C913.577+405.027+896.294+354.888+890.978+329.8Z" opacity="1" fill="#91ca9b"/>
    <path d="M890.978+329.8C887.801+314.806+860.931+315.832+852.333+329.662C837.342+353.773+831.608+441.228+837.44+449.59C844.213+459.303+893.651+457.439+896.614+449.647C913.577+405.027+896.294+354.888+890.978+329.8Z" fill-opacity="0.0737799" fill="#000000" opacity="1"/>
    <path d="M876.16+311.571L1035.57+301.194C1035.57+301.194+1027.64+417.582+1035.54+444.579C1043.44+471.576+1039.79+508.174+1031.37+525.379C1029.55+529.098+1029.14+575.418+1028.8+578.487C1027.24+592.291+962.308+597.966+957.86+582.564C954.973+572.57+956.92+514.47+945.498+515.716C934.075+516.961+937.164+578.5+934.922+586.599C932.307+596.042+872.979+599.771+866.489+586.691C863.271+580.207+865.985+514.765+861.471+505.755C836.63+456.178+876.16+311.571+876.16+311.571Z" opacity="1" fill="#000000"/>
    <path d="M878.824+305.324L1026.43+303.151C1026.43+303.151+984.237+393.289+1029.62+453.832C1042.47+470.983+1033.36+510.947+1026.91+524.143C1026.44+551.865+1024.11+574.265+1021.65+578.309C1014.36+590.259+967.623+593.518+963.174+578.115C961.018+570.651+960.514+534.747+953.763+517.475C953.079+515.725+971.62+512.468+970.783+511.178C969.826+509.703+956.836+508.888+943.646+508.586C929.79+508.267+915.715+508.514+915.137+509.151C913.891+510.527+937.889+514.268+937.045+516.623C930.311+535.396+934.866+583.157+927.104+585.976C917.894+589.32+878.105+594.989+871.614+581.908C868.315+575.261+871.126+510.61+866.974+503.919C840.809+461.75+878.824+305.324+878.824+305.324Z" opacity="1" fill="#91ca9b"/>
    <path d="M1016.69+337.852C1019.87+323.13+1049.74+326.656+1058.34+340.235C1073.33+363.909+1073.52+450.088+1064.29+463.001C1053.87+477.582+1006.52+471.113+999.975+460.249C988.661+441.454+1011.37+362.485+1016.69+337.852Z" opacity="1" fill="#000000"/>
    <path d="M1008.98+342.819C1012.16+328.096+1047.29+329.907+1055.89+343.485C1070.88+367.159+1066.92+449.409+1061.09+457.619C1054.32+467.156+1009.32+471.207+1003.04+455.665C996.756+440.124+1003.67+367.451+1008.98+342.819Z" opacity="1" fill="#ffffff"/>
    <path d="M1007.58+346.851C1010.76+332.129+1043.13+331.091+1051.73+344.67C1066.72+368.344+1066.92+449.409+1061.09+457.619C1054.32+467.156+1009.32+471.207+1003.04+455.665C996.756+440.124+1002.27+371.484+1007.58+346.851Z" opacity="1" fill="#91ca9b"/>
    <path d="M85.347+1067.64C85.4415+1043.46+171.486+1024.03+277.533+1024.26C383.58+1024.49+442.03+1024.56+440.945+1073.43C439.86+1122.3+383.237+1112.07+277.191+1111.84C171.144+1111.62+85.2525+1091.83+85.347+1067.64Z" opacity="1" style="fill: rgba(0, 0, 0, 0.11);"/>
    <path d="M699.542+739.23C688.692+744.343+682.74+760.232+687.574+770.489C692.408+780.746+707.002+783.991+717.852+778.878C728.702+773.764+735.104+759.92+730.27+749.663C725.436+739.406+710.391+734.116+699.542+739.23Z" opacity="1" fill="#000000"/>
    <path d="M704.586+744.52C689.335+752.219+688.263+763.709+694.432+770.308C699.9+776.159+713.771+783.263+699.694+781.737C692.117+780.916+720.224+786.911+726.072+784.156C732.039+781.343+734.376+751.777+732.013+760.454C729.624+769.225+728.292+760.019+727.582+756.828C725.622+748.022+713.979+739.779+704.586+744.52Z" opacity="1" fill="#91b1ca"/>
    <path d="M707.453+755.303C701.652+758.037+698.891+764.373+701.286+769.454C703.681+774.536+710.325+776.439+716.126+773.705C721.928+770.971+724.689+764.635+722.294+759.553C719.899+754.472+713.255+752.569+707.453+755.303Z" opacity="1" fill="#000000"/>
    <path d="M712.762+753.56C706.961+756.295+704.2+762.63+706.595+767.712C708.99+772.794+715.634+774.697+721.435+771.963C727.236+769.229+729.998+762.893+727.603+757.811C725.208+752.729+718.563+750.826+712.762+753.56Z" opacity="1" fill="#91b1ca"/>
    <path d="M910.505+786.413C908.096+774.663+894.061+765.13+882.953+767.407C871.845+769.684+865.247+783.101+867.656+794.851C870.065+806.601+882.008+816.089+893.116+813.812C904.224+811.535+912.914+798.163+910.505+786.413Z" opacity="1" fill="#000000"/>
    <path d="M904.174+790.067C900.292+773.429+889.379+769.677+881.51+774.114C874.534+778.047+864.358+789.85+869.162+776.531C871.748+769.361+859.29+795.26+860.588+801.593C861.913+808.056+890.092+817.303+882.218+812.959C874.258+808.568+883.519+809.446+886.787+809.509C895.807+809.682+906.565+800.313+904.174+790.067Z" opacity="1" fill="#91b1ca"/>
    <path d="M893.019+790.309C891.731+784.026+886.226+779.848+880.723+780.976C875.219+782.104+871.802+788.112+873.09+794.394C874.378+800.677+879.883+804.855+885.387+803.727C890.89+802.599+894.307+796.591+893.019+790.309Z" opacity="1" fill="#000000"/>
    <path d="M893.46+795.879C892.172+789.596+886.666+785.418+881.163+786.546C875.66+787.674+872.242+793.682+873.53+799.964C874.818+806.247+880.324+810.425+885.827+809.297C891.33+808.169+894.747+802.161+893.46+795.879Z" opacity="1" fill="#91b1ca"/>
    <path d="M146.124+1023.67C144.356+1003.32+199.051+1089.8+179.55+1074.7C163.318+1062.13+104.032+1078.12+104.547+1067.89C105.071+1057.47+147.935+1044.52+146.124+1023.67Z" opacity="1" fill="#000000"/>
    <path d="M179.137+1000.72C188.896+982.77+192.575+1059.56+192.575+1059.56L108.962+1066.59C108.962+1066.59+158.679+1038.34+179.137+1000.72Z" opacity="1" fill="#c37c7c"/>
    <path d="M289.378+589.102C301.218+591.023+311.323+604.652+309.507+615.845C307.692+627.037+294.559+634.184+282.72+632.263C270.881+630.342+260.906+618.803+262.722+607.61C264.538+596.417+277.539+587.181+289.378+589.102Z" opacity="1" fill="#000000"/>
    <path d="M285.989+595.579C302.773+598.77+306.974+609.518+302.866+617.563C299.224+624.696+287.853+635.352+300.962+630.001C308.018+627.121+282.657+640.64+276.276+639.605C269.764+638.548+259.359+610.775+264.025+618.463C268.741+626.234+267.481+617.018+267.283+613.755C266.737+604.75+275.653+593.614+285.989+595.579Z" opacity="1" fill="#ef9a9a"/>
    <path d="M285.768+602.992C292.098+604.019+296.501+609.347+295.601+614.892C294.702+620.437+288.84+624.1+282.51+623.073C276.18+622.046+271.777+616.718+272.677+611.173C273.576+605.628+279.438+601.965+285.768+602.992Z" opacity="1" fill="#000000"/>
    <path d="M280.626+606.525C286.956+607.552+291.359+612.88+290.459+618.425C289.559+623.97+283.698+627.633+277.368+626.606C271.037+625.579+266.635+620.251+267.535+614.706C268.434+609.16+274.295+605.498+280.626+606.525Z" opacity="1" fill="#ef9a9a"/>
    <path d="M226.662+814.524C287.486+798.484+363.573+923.944+331.571+994.425C368.461+995.976+370.877+1007.8+373.562+1014.06C377.535+1023.34+370.305+1087.78+352.141+1087.83C322.37+1087.92+222.494+1061.7+203.533+996.34C190.316+950.78+173.382+828.576+226.662+814.524Z" opacity="1" fill="#000000"/>
    <path d="M226.662+814.524C287.486+798.484+360.216+929.91+328.214+1000.39C365.104+1001.94+364.559+1010.87+367.244+1017.14C371.217+1026.41+365.193+1081.58+347.144+1082.14C301.799+1083.54+222.494+1061.7+203.533+996.34C190.316+950.78+173.382+828.576+226.662+814.524Z" opacity="1" fill="#c37c7c"/>
    <path d="M189.176+793.301C253.826+774.354+315.283+932.58+281.268+1015.83C286.187+1016.06+292.68+1010.71+297.021+1010.94C327.278+1012.52+349.436+1009.43+347.032+1029.74C344.53+1050.89+342.27+1094.92+311.097+1094.71C207.765+1094.01+163.217+1091.38+143.063+1014.17C129.015+960.359+132.544+809.898+189.176+793.301Z" opacity="1" fill="#000000"/>
    <path d="M192.898+798.288C257.548+779.341+315.283+932.58+281.268+1015.83C286.187+1016.06+290.82+1016.29+295.161+1016.52C325.418+1018.1+344.602+1015.29+341.014+1035.42C336.174+1062.58+327.909+1089.23+309.574+1089C199.912+1087.67+168.898+1088.25+148.744+1011.05C134.696+957.231+136.266+814.886+192.898+798.288Z" opacity="1" fill="#ef9a9a"/>
    <path d="M362.816+1002.5C337.246+1018.36+288.971+1024.54+269.397+1011.45C247.734+996.959+226.985+921.885+261.794+921.12C282.227+920.671+351.516+914.872+351.516+914.872C351.516+914.872+388.387+986.636+362.816+1002.5Z" opacity="1" fill="#000000"/>
    <path d="M136.828+637.755C141.88+626.877+157.735+620.836+168.019+625.613C178.303+630.389+181.63+644.965+176.578+655.843C171.525+666.721+157.717+673.202+147.433+668.425C137.149+663.649+131.775+648.634+136.828+637.755Z" opacity="1" fill="#000000"/>
    <path d="M142.146+642.77C149.759+627.476+161.243+626.34+167.877+632.471C173.758+637.907+180.94+651.738+179.335+637.67C178.471+630.097+184.624+658.17+181.901+664.033C179.122+670.017+149.57+672.519+158.233+670.107C166.991+667.669+157.778+666.389+154.583+665.697C145.766+663.786+137.458+652.189+142.146+642.77Z" opacity="1" fill="#ef9a9a"/>
    <path d="M149.223+644.989C151.924+639.173+158.244+636.376+163.339+638.743C168.435+641.109+170.375+647.743+167.673+653.559C164.972+659.375+158.652+662.172+153.557+659.806C148.461+657.439+146.521+650.806+149.223+644.989Z" opacity="1" fill="#000000"/>
    <path d="M151.232+650.896C153.934+645.079+160.254+642.282+165.349+644.649C170.444+647.015+172.384+653.649+169.683+659.465C166.981+665.282+160.661+668.078+155.566+665.712C150.471+663.345+148.531+656.712+151.232+650.896Z" opacity="1" fill="#ef9a9a"/>
    <path d="M280.69+1012.43C259.027+997.94+243.726+965.494+278.536+964.729C298.969+964.28+353.234+933.983+353.234+933.983C353.234+933.983+372.43+970.102+362.401+992.714C360.76+996.414+300.265+1025.52+280.69+1012.43Z" opacity="1" fill="#c37c7c"/>
    <path d="M209.64+620.377C332.823+577.383+323.923+687.897+347.994+709.405C380.263+738.236+414.491+699.827+459.6+746.598C506.698+795.431+488.538+906.866+409.493+926.789C290.436+956.798+249.149+925.39+179.335+883.549C100.815+836.49+106.117+656.51+209.64+620.377Z" opacity="1" fill="#000000"/>
    <path d="M210.422+630.802C335.443+587.821+319.65+694.128+340.612+712.818C385.784+753.095+410.786+702.54+455.197+751.061C496.799+796.515+492.659+887.883+415.29+916.749C337.921+945.615+242.147+929.817+180.096+876.077C102.144+808.565+105.355+666.924+210.422+630.802Z" opacity="1" fill="#000000"/>
    <path d="M211.477+630.802C336.011+587.821+320.279+694.128+341.16+712.818C386.156+753.095+411.061+702.54+455.299+751.061C496.739+796.515+492.615+887.883+415.547+916.749C338.48+945.615+235.287+938.866+177.736+880.742C132.028+834.579+129.11+763.424+132.17+735.58C137.727+685.03+156.857+649.653+211.477+630.802Z" opacity="1" fill="#ffffff"/>
    <path d="M215.179+635.079C339.713+592.098+320.279+694.128+341.16+712.818C386.156+753.095+411.061+702.54+455.299+751.061C496.739+796.515+492.615+887.883+415.547+916.749C338.48+945.615+234.076+941+176.524+882.876C130.816+836.714+128.337+768.684+132.295+740.954C136.312+712.814+160.559+653.931+215.179+635.079Z" opacity="1" fill="#ef9a9a"/>
    <path d="M463.671+760.252C504.764+801.177+480.75+901.483+404.311+927.493C327.872+953.503+262.672+934.46+201.38+886.075C184.809+872.995+139.543+813.116+161.249+823.765C226.739+855.894+310.977+816.18+339.756+777.219C368.536+738.258+447.611+744.257+463.671+760.252Z" fill-opacity="0.0737799" fill="#000000" opacity="1"/>
    <path d="M181.68+700.487C181.248+683.752+192.4+670.107+206.589+670.012C220.779+669.916+232.633+683.405+233.065+700.14C233.497+716.875+222.345+730.519+208.156+730.615C193.966+730.711+182.113+717.222+181.68+700.487Z" opacity="1" fill="#000000"/>
    <path d="M378.275+855.83L435.954+855.974C435.954+855.974+450.967+856.7+451.383+860.098C452.134+866.231+435.76+865.19+435.76+865.19C435.76+865.19+433.449+894.858+427.199+899.468C423.26+902.373+387.812+908.386+378.874+901.187C375.11+898.155+377.359+865.056+377.359+865.056C377.359+865.056+361.117+865.347+361.224+860.702C361.367+854.532+378.275+855.83+378.275+855.83Z" opacity="1" fill="#000000"/>
    <path d="M384.954+867.062C396.835+858.614+431.721+862.675+430.605+866.545C429.244+871.265+430.997+890.05+426.867+894.824C422.332+900.068+395.312+903.023+383.045+900.286C379.992+899.605+379.15+871.19+384.954+867.062Z" opacity="1" fill="#ffffff"/>
    <path d="M322.128+853.344L372.751+855.542C372.751+855.542+384.672+857.286+384.926+860.18C385.384+865.403+371.527+864.043+371.527+864.043C371.527+864.043+368.703+889.138+363.267+892.865C359.842+895.214+329.603+899.28+322.233+892.914C319.129+890.233+322.001+862.227+322.001+862.227C322.001+862.227+308.218+862.001+308.444+858.064C308.745+852.835+322.128+853.344+322.128+853.344Z" opacity="1" fill="#000000"/>
    <path d="M328.042+862.696C333.041+859.391+368.175+861.793+367.116+865.042C365.824+869.005+365.859+887.316+361.74+890.171C357.342+893.219+331.154+896.636+325.797+892.272C322.605+889.671+323.616+865.623+328.042+862.696Z" opacity="1" fill="#f6f6f6"/>
    <path d="M273.991+683.497C273.596+668.051+283.771+655.458+296.717+655.37C309.664+655.281+320.478+667.731+320.873+683.177C321.267+698.623+311.092+711.216+298.146+711.305C285.2+711.393+274.386+698.943+273.991+683.497Z" opacity="1" fill="#000000"/>
    <path d="M361.913+792.435C361.913+784.514+368.493+778.563+376.33+778.563C384.167+778.563+388.794+785.456+388.794+793.377C388.794+801.297+384.167+807.246+376.33+807.246C368.493+807.246+361.913+800.355+361.913+792.435Z" opacity="1" fill="#000000"/>
    <path d="M178.085+738.033C176.734+730.19+191.389+719.461+216.568+714.938C241.747+710.416+249.406+716.64+250.757+724.483C252.109+732.325+243.143+731.337+217.964+735.859C192.785+740.382+179.436+745.876+178.085+738.033Z" opacity="1" fill="#ffffff"/>
    <path d="M294.16+674.855C294.16+669.113+299.037+664.458+303.915+664.458C308.793+664.458+313.671+669.657+313.671+674.855C313.671+680.054+309.303+685.253+303.915+685.253C298.527+685.253+294.16+680.597+294.16+674.855Z" opacity="1" fill="#ffffff"/>
    <path d="M271.506+716.838C270.565+709.57+285.235+701.064+307.618+697.781C330.001+694.497+333.793+696.186+334.734+703.454C335.676+710.722+327.713+711.489+305.33+714.773C282.947+718.056+272.447+724.106+271.506+716.838Z" opacity="1" fill="#ffffff"/>
    <path d="M366.44+791.914C366.44+789.84+366.873+788.034+367.719+786.59C369.099+784.238+371.575+782.851+375.059+782.851C380.681+782.851+385.239+787.272+385.239+792.725C385.239+798.179+380.681+802.6+375.059+802.6C369.438+802.6+366.44+797.367+366.44+791.914Z" opacity="1" fill="#834e4e"/>
    <path d="M457.869+784.165C457.869+776.744+463.015+771.879+469.435+771.879C475.855+771.879+473.366+770.497+478.292+784.538C483.217+798.579+475.855+798.75+469.435+798.75C463.015+798.75+457.869+791.585+457.869+784.165Z" opacity="1" fill="#000000"/>
    <path d="M461.814+786.564C461.814+780.89+462.975+777.458+465.088+776.75C470.273+775.009+470.024+778.853+471.919+784.743C474.419+792.511+476.077+795.649+470.607+795.649C465.137+795.649+461.814+792.238+461.814+786.564Z" opacity="1" fill="#834e4e"/>
    <path d="M150.612+659.339C168.566+647.517+184.089+637.216+207.766+652.498C234.685+647.303+259.201+670.132+255.38+679.757C250.647+691.68+249.198+687.538+202.951+682.744C155.219+677.797+121.335+678.616+150.612+659.339Z" opacity="1" fill="#000000"/>
    <path d="M161.534+660.513C188.337+649.698+248.918+659.881+248.305+678.458C247.992+687.941+247.56+681.505+201.312+676.712C153.581+671.764+134.731+671.329+161.534+660.513Z" opacity="1" fill="#cd9a9a"/>
    <path d="M251.179+678.428C237.308+669.977+256.043+642.224+285.814+636.236C305.214+617.064+329.872+619.161+330.684+631.38C332.303+655.752+312.31+646.933+292.727+659.227C273.143+671.522+278.02+694.781+251.179+678.428Z" opacity="1" fill="#000000"/>
    <path d="M257.559+675.906C250.656+671.375+256.099+663.169+266.389+655.01C286.548+639.026+325.308+623.223+326.273+635.585C327.135+646.637+308.874+643.038+289.29+655.333C269.706+667.628+270.567+684.446+257.559+675.906Z" opacity="1" fill="#cd9a9a"/>
    <path d="M158.128+663.546C158.301+668.152+175.886+653.437+204.705+660.096C233.524+666.755+245.472+676.736+246.678+676.848C247.883+676.959+256.273+662.054+210.025+657.261C162.294+652.313+157.921+658.043+158.128+663.546Z" opacity="1" fill="#ffd3d3"/>
    <path d="M255.326+667.178C253.833+658.558+313.252+620.648+326.444+632.936C329.917+636.17+305.486+633.937+285.902+646.232C266.319+658.527+256.585+674.449+255.326+667.178Z" opacity="1" fill="#ffd3d3"/>
    <path d="M189.694+682.952C189.694+680.253+191.801+678.066+194.401+678.066C197+678.066+199.108+680.253+199.108+682.952C199.108+685.651+197+687.839+194.401+687.839C191.801+687.839+189.694+685.651+189.694+682.952Z" opacity="1" fill="#ffffff"/>
    <path d="M186.821+690.743C186.821+689.06+188.238+687.696+189.986+687.696C191.734+687.696+193.152+689.06+193.152+690.743C193.152+692.425+191.734+693.79+189.986+693.79C188.238+693.79+186.821+692.425+186.821+690.743Z" opacity="1" fill="#ffffff"/>
    <path d="M279.497+671.638C279.497+668.94+281.604+666.752+284.204+666.752C286.804+666.752+288.911+668.94+288.911+671.638C288.911+674.337+286.804+676.525+284.204+676.525C281.604+676.525+279.497+674.337+279.497+671.638Z" opacity="1" fill="#ffffff"/>
    <path d="M276.625+679.429C276.625+677.746+278.042+676.382+279.79+676.382C281.538+676.382+282.955+677.746+282.955+679.429C282.955+681.112+281.538+682.476+279.79+682.476C278.042+682.476+276.625+681.112+276.625+679.429Z" opacity="1" fill="#ffffff"/>
    <path d="M204.551+689.982C204.551+683.766+209.817+678.728+215.084+678.728C220.35+678.728+225.616+684.355+225.616+689.982C225.616+695.609+220.9+701.236+215.084+701.236C209.267+701.236+204.551+696.197+204.551+689.982Z" opacity="1" fill="#ffffff"/>
    <path d="M208.316+901.585C219.339+901.531+298.386+935.115+303.573+943.93C305.199+946.692+346.428+939.493+350.358+943.121C363.502+955.252+361.277+1000.89+349.655+1010.45C343.743+1015.31+294.901+1029.82+270.903+1021.41C248.66+1013.62+200.432+981.577+205.744+968.37C218.304+937.136+200.088+901.625+208.316+901.585Z" opacity="1" fill="#000000"/>
    <path d="M206.589+899.281C206.589+899.281+214.091+898.147+223.819+902.869C247.008+914.127+287.584+939.129+303.51+951.184C304.742+952.117+343.697+945.303+348.107+949.498C357.794+958.712+354.544+990.875+346.196+1001.55C340.079+1009.37+290.031+1022.91+267.756+1014.47C250.39+1007.89+181.574+957.682+181.574+957.682L206.589+899.281Z" opacity="1" fill="#ef9a9a"/>
    <path d="M151.527+854.898C151.527+854.898+144.957+970.139+168.507+1015.93C192.056+1061.73+306.67+1096.44+306.67+1096.44C306.67+1096.44+194.314+1097.9+166.592+1054.5C117.004+976.879+151.527+854.898+151.527+854.898Z" fill-opacity="0.0737799" fill="#000000" opacity="1"/>
    <path d="M290.907+933.824L269.581+928.534C269.581+928.534+243.598+915.339+243.801+913.956C244.122+911.773+290.907+933.824+290.907+933.824Z" opacity="1" fill="#000000"/>
    <path d="M154.24+853.19C159.012+861.66+177.005+880.847+175.235+882.342C173.466+883.837+155.46+863.021+150.794+856.214C146.76+850.974+148.804+843.54+154.24+853.19Z" opacity="1" fill="#000000"/>
    <path d="M758.016+1053.47C761.245+1029.75+877.237+1037.35+911.818+1037.35C1004.98+1037.35+1080.51+1058.76+1080.51+1085.2C1080.51+1111.65+951.068+1108.31+857.901+1108.31C822.415+1108.31+752.293+1095.5+758.016+1053.47Z" opacity="1" style="fill: rgba(0, 0, 0, 0.11);"/>
    <path d="M857.91+945.036L769.745+945.036C769.745+945.036+779.712+1054.67+782.083+1066.86C784.641+1080.02+853.056+1078.78+856.69+1067.05C860.325+1055.31+857.91+945.036+857.91+945.036Z" opacity="1" fill="#000000"/>
    <path d="M857.91+945.036L769.745+945.036C769.745+945.036+785.703+1050.65+788.074+1062.85C790.632+1076+852.54+1070.96+856.175+1059.22C859.809+1047.49+857.91+945.036+857.91+945.036Z" opacity="1" fill="#6e90ab"/>
    <path d="M1016.71+938.447L928.547+938.447C928.547+938.447+938.513+1048.08+940.884+1060.27C943.442+1073.43+1011.86+1072.19+1015.49+1060.46C1019.13+1048.72+1016.71+938.447+1016.71+938.447Z" opacity="1" fill="#000000"/>
    <path d="M1016.71+938.447L928.547+938.447C928.547+938.447+945.287+1046.21+947.658+1058.41C950.216+1071.56+1014.6+1055.13+1018.23+1043.39C1021.87+1031.66+1016.71+938.447+1016.71+938.447Z" opacity="1" fill="#6e90ab"/>
    <path d="M1052.12+940.289C1045.25+925.358+1032.9+981.993+1045.64+995.894C1058.37+1009.8+1101.45+1009.8+1103.07+995.894C1104.69+981.993+1069.1+977.198+1052.12+940.289Z" opacity="1" fill="#000000"/>
    <path d="M1042.86+936.345C1035.99+921.413+1025.22+970.559+1037.96+984.46C1050.69+998.362+1093.41+1009.23+1095.03+995.327C1096.65+981.426+1059.85+973.254+1042.86+936.345Z" opacity="1" fill="#6e90ab"/>
    <path d="M1024.99+906.913C973.273+872.547+895.044+875.238+841.743+919.714C799.186+955.224+796.387+1070.32+803.25+1081.43C811.074+1094.09+881.769+1091.46+890.181+1070.82C898.885+1049.45+886.513+1042.15+935.629+1032.66C988.618+1022.42+961.228+1076.98+991.615+1080.55C1024.22+1084.39+1036.62+1085.92+1047.22+1065.86C1055.67+1049.88+1085.38+947.038+1024.99+906.913Z" opacity="1" fill="#000000"/>
    <path d="M821.22+743.702C698.037+700.708+702.862+816.067+678.79+837.574C646.521+866.405+616.369+823.152+571.26+869.923C524.162+918.756+542.322+1030.19+621.367+1050.11C740.424+1080.12+790.392+1060.61+851.525+1006.87C928.323+939.37+924.743+779.835+821.22+743.702Z" opacity="1" fill="#000000"/>
    <path d="M903.342+892.05C885.862+900.065+868.374+912.849+849.821+928.33C826.369+947.899+814.758+987.834+810.208+1021.61C806.502+1049.11+807.482+1072.53+810.563+1077.52C818.387+1090.19+875.827+1086.43+884.239+1065.79C887.769+1057.12+888.974+1050.85+892.435+1045.83C894.583+1042.71+897.601+1040.07+902.583+1037.64C909.367+1034.32+919.794+1031.38+936.631+1028.13C949.638+1025.62+956.725+1027.66+963.347+1028.48C969.969+1029.3+980.934+1032.51+982.244+1034.15C983.651+1035.92+970.732+1038.97+971.707+1041.07C978.32+1055.28+977.04+1075.21+994.978+1076.2C1025.8+1077.9+1042.14+1089.02+1051.12+1035.18C1051.93+1030.31+1052.68+1024.91+1053.38+1018.93C1054.4+1010.17+1055.3+1000.15+1056.11+988.7C1063.51+882.961+936.078+877.039+903.342+892.05Z" opacity="1" fill="#ffffff"/>
    <path d="M903.342+892.05C885.862+900.065+868.374+912.849+849.821+928.33C826.369+947.899+814.758+987.834+810.208+1021.61C806.502+1049.11+807.482+1072.53+810.563+1077.52C818.387+1090.19+875.827+1086.43+884.239+1065.79C887.769+1057.12+888.974+1050.85+892.435+1045.83C894.583+1042.71+897.601+1040.07+902.583+1037.64C909.367+1034.32+919.794+1031.38+936.631+1028.13C949.638+1025.62+956.725+1027.66+963.347+1028.48C969.969+1029.3+980.934+1032.51+982.244+1034.15C983.651+1035.92+970.732+1038.97+971.707+1041.07C978.32+1055.28+977.04+1075.21+994.978+1076.2C1025.8+1077.9+1042.14+1089.02+1051.12+1035.18C1051.93+1030.31+1052.68+1024.91+1053.38+1018.93C1054.4+1010.17+1055.63+1000.17+1056.11+988.7C1059.72+901.189+936.078+877.039+903.342+892.05Z" opacity="1" fill="#91b1ca"/>
    <path d="M820.438+754.127C695.417+711.146+711.21+817.453+690.248+836.143C645.076+876.42+620.074+825.865+575.663+874.386C534.061+919.84+538.201+1011.21+615.57+1040.07C692.939+1068.94+788.713+1053.14+850.764+999.402C928.716+931.89+925.505+790.249+820.438+754.127Z" opacity="1" fill="#000000"/>
    <path d="M819.383+754.127C694.849+711.146+710.581+817.453+689.7+836.143C644.704+876.42+619.799+825.865+575.561+874.386C534.121+919.84+538.245+1011.21+615.313+1040.07C692.38+1068.94+795.573+1062.19+853.124+1004.07C898.832+957.904+901.75+886.749+898.69+858.906C893.133+808.355+874.003+772.978+819.383+754.127Z" opacity="1" fill="#ffffff"/>
    <path d="M815.681+758.404C691.147+715.423+710.581+817.453+689.7+836.143C644.704+876.42+619.799+825.865+575.561+874.386C534.121+919.84+538.245+1011.21+615.313+1040.07C692.38+1068.94+796.784+1064.33+854.336+1006.2C900.044+960.039+902.523+892.009+898.565+864.279C894.548+836.139+870.301+777.256+815.681+758.404Z" opacity="1" fill="#91b1ca"/>
    <path d="M567.189+883.577C526.096+924.502+550.11+1024.81+626.549+1050.82C702.988+1076.83+768.188+1057.78+829.48+1009.4C846.051+996.32+891.317+936.441+869.611+947.09C804.121+979.219+719.883+939.505+691.104+900.544C662.324+861.583+583.249+867.582+567.189+883.577Z" fill-opacity="0.0737799" fill="#000000" opacity="1"/>
    <path d="M854.469+821.742C854.902+805.007+843.749+791.362+829.56+791.267C815.37+791.171+803.517+804.66+803.084+821.395C802.652+838.13+813.804+851.774+827.994+851.87C842.183+851.966+854.037+838.477+854.469+821.742Z" opacity="1" fill="#000000"/>
    <path d="M652.585+979.155L594.906+979.299C594.906+979.299+579.893+980.025+579.477+983.423C578.726+989.556+595.1+988.515+595.1+988.515C595.1+988.515+597.411+1018.18+603.661+1022.79C607.6+1025.7+643.048+1031.71+651.986+1024.51C655.75+1021.48+653.501+988.381+653.501+988.381C653.501+988.381+669.743+988.672+669.636+984.027C669.493+977.857+652.585+979.155+652.585+979.155Z" opacity="1" fill="#000000"/>
    <path d="M647.294+988.199C647.294+988.199+599.139+986.001+600.255+989.87C601.616+994.59+599.863+1013.37+603.993+1018.15C608.528+1023.39+644.126+1025.82+647.815+1023.61C651.978+1021.12+647.294+988.199+647.294+988.199Z" opacity="1" fill="#ffffff"/>
    <path d="M708.732+976.669L658.109+978.867C658.109+978.867+646.188+980.611+645.934+983.505C645.476+988.728+659.333+987.368+659.333+987.368C659.333+987.368+662.157+1012.46+667.593+1016.19C671.018+1018.54+701.257+1022.61+708.627+1016.24C711.731+1013.56+708.859+985.552+708.859+985.552C708.859+985.552+722.642+985.326+722.416+981.389C722.115+976.16+708.732+976.669+708.732+976.669Z" opacity="1" fill="#000000"/>
    <path d="M703.59+985.579C703.59+985.579+662.685+985.118+663.744+988.367C665.036+992.33+664.097+1008.31+667.738+1012.24C671.738+1016.56+701.999+1017.58+705.063+1015.6C708.521+1013.36+703.59+985.579+703.59+985.579Z" opacity="1" fill="#f6f6f6"/>
    <path d="M762.158+804.752C762.553+789.306+752.378+776.713+739.432+776.625C726.486+776.536+715.671+788.986+715.276+804.432C714.882+819.878+725.057+832.471+738.003+832.559C750.949+832.648+761.764+820.198+762.158+804.752Z" opacity="1" fill="#000000"/>
    <path d="M668.947+915.76C668.947+907.84+662.367+901.889+654.53+901.889C646.693+901.889+642.066+908.782+642.066+916.702C642.066+924.622+646.693+930.571+654.53+930.571C662.367+930.571+668.947+923.68+668.947+915.76Z" opacity="1" fill="#000000"/>
    <path d="M858.064+859.288C859.416+851.445+844.761+840.716+819.582+836.193C794.402+831.671+786.743+837.895+785.392+845.737C784.041+853.58+793.006+852.592+818.186+857.114C843.365+861.637+856.713+867.131+858.064+859.288Z" opacity="1" fill="#cad7e2"/>
    <path d="M741.99+796.11C741.99+790.368+737.112+785.713+732.234+785.713C727.356+785.713+722.478+790.911+722.478+796.11C722.478+801.309+726.846+806.507+732.234+806.507C737.622+806.507+741.99+801.852+741.99+796.11Z" opacity="1" fill="#ffffff"/>
    <path d="M764.643+838.093C765.584+830.825+750.914+822.319+728.531+819.036C706.148+815.752+702.356+817.441+701.415+824.709C700.474+831.977+708.437+832.744+730.82+836.028C753.203+839.311+763.702+845.361+764.643+838.093Z" opacity="1" fill="#cad7e2"/>
    <path d="M664.42+915.239C664.42+913.166+663.987+911.359+663.141+909.915C661.761+907.563+659.285+906.176+655.801+906.176C650.179+906.176+645.621+910.597+645.621+916.051C645.621+921.504+650.179+925.925+655.801+925.925C661.422+925.925+664.42+920.692+664.42+915.239Z" opacity="1" fill="#3a5973"/>
    <path d="M572.991+907.49C572.991+900.07+567.845+895.204+561.425+895.204C555.005+895.204+557.494+893.822+552.568+907.863C547.643+921.904+555.005+922.075+561.425+922.075C567.845+922.075+572.991+914.91+572.991+907.49Z" opacity="1" fill="#000000"/>
    <path d="M569.046+909.889C569.046+904.215+567.885+900.784+565.772+900.075C560.587+898.334+560.836+902.178+558.941+908.068C556.441+915.836+554.783+918.974+560.253+918.974C565.723+918.974+569.046+915.563+569.046+909.889Z" opacity="1" fill="#3a5973"/>
    <path d="M776.64+1048.93C767.249+1052.6+800.955+1042.69+800.955+1042.69C800.955+1042.69+833.9+1027+834.581+1020.41C835.262+1013.83+801.032+1039.38+776.64+1048.93Z" opacity="1" fill="#000000"/>
    <path d="M895.68+931.817C895.68+931.817+899.257+901.804+897.584+910.324C894.084+928.144+877.275+962.876+881.424+963.489C884.584+963.955+895.68+931.817+895.68+931.817Z" opacity="1" fill="#000000"/>
    <path d="M938.816+884.329L900.452+890.183L887.861+949.381C887.861+949.381+900.152+920.957+908.949+904.873C917.745+888.788+938.816+884.329+938.816+884.329Z" fill-opacity="0.201006" fill="#000000" opacity="1"/>
    <path d="M846.456+804.207C846.456+801.508+844.348+799.321+841.749+799.321C839.149+799.321+837.042+801.508+837.042+804.207C837.042+806.906+839.149+809.094+841.749+809.094C844.348+809.094+846.456+806.906+846.456+804.207Z" opacity="1" fill="#ffffff"/>
    <path d="M849.328+811.998C849.328+810.315+847.911+808.951+846.163+808.951C844.415+808.951+842.998+810.315+842.998+811.998C842.998+813.68+844.415+815.044+846.163+815.044C847.911+815.044+849.328+813.68+849.328+811.998Z" opacity="1" fill="#ffffff"/>
    <path d="M756.652+792.893C756.652+790.195+754.545+788.007+751.945+788.007C749.346+788.007+747.238+790.195+747.238+792.893C747.238+795.592+749.346+797.78+751.945+797.78C754.545+797.78+756.652+795.592+756.652+792.893Z" opacity="1" fill="#ffffff"/>
    <path d="M759.525+800.684C759.525+799.001+758.108+797.637+756.36+797.637C754.612+797.637+753.195+799.001+753.195+800.684C753.195+802.367+754.612+803.731+756.36+803.731C758.108+803.731+759.525+802.367+759.525+800.684Z" opacity="1" fill="#ffffff"/>
    <path d="M831.598+811.237C831.598+805.021+826.332+799.983+821.066+799.983C815.8+799.983+810.533+805.61+810.533+811.237C810.533+816.864+815.249+822.491+821.066+822.491C826.883+822.491+831.598+817.452+831.598+811.237Z" opacity="1" fill="#ffffff"/>
    <path d="M887.212+108.598C879.051+114.782+877.889+129.953+884.703+138.481C891.516+147.01+905.061+147.805+913.222+141.621C921.383+135.437+923.455+122.041+916.642+113.512C909.828+104.983+895.373+102.414+887.212+108.598Z" opacity="1" fill="#000000"/>
    <path d="M892.95+112.625C881.607+121.778+883.586+132.278+890.635+137.32C896.885+141.789+910.776+146.163+898.119+146.841C891.306+147.206+917.326+148.507+921.725+145.174C926.214+141.773+920.756+114.817+920.896+122.972C921.037+131.216+917.543+123.122+916.115+120.354C912.174+112.712+899.936+106.988+892.95+112.625Z" opacity="1" fill="#91ca9b"/>
    <path d="M898.182+121.914C893.819+125.221+893.018+131.327+896.393+135.552C899.769+139.778+906.043+140.523+910.407+137.216C914.77+133.909+915.571+127.803+912.196+123.578C908.82+119.352+902.546+118.607+898.182+121.914Z" opacity="1" fill="#000000"/>
    <path d="M902.368+119.572C898.005+122.879+897.204+128.985+900.579+133.21C903.955+137.436+910.229+138.18+914.593+134.874C918.956+131.567+919.757+125.461+916.382+121.236C913.006+117.01+906.732+116.265+902.368+119.572Z" opacity="1" fill="#91ca9b"/>
    <path d="M1041.82+116.657C1035.22+107.886+1020.54+106.046+1012.88+112.802C1005.22+119.558+1005.54+133.656+1012.14+142.427C1018.74+151.198+1031.78+153.915+1039.44+147.159C1047.1+140.403+1048.41+125.428+1041.82+116.657Z" opacity="1" fill="#000000"/>
    <path d="M1038.4+122.477C1028.69+110.263+1018.75+111.893+1014.47+119.039C1010.67+125.375+1007.57+139.688+1005.91+126.454C1005.02+119.33+1005.84+146.424+1009.4+151.152C1013.03+155.976+1038.52+151.398+1030.69+151.206C1022.77+151.012+1030.27+147.701+1032.82+146.326C1039.85+142.531+1044.38+129.999+1038.4+122.477Z" opacity="1" fill="#91ca9b"/>
    <path d="M1029.89+127.551C1026.36+122.862+1020.42+121.773+1016.63+125.12C1012.84+128.467+1012.62+134.983+1016.15+139.672C1019.68+144.362+1025.61+145.451+1029.41+142.104C1033.2+138.756+1033.42+132.241+1029.89+127.551Z" opacity="1" fill="#000000"/>
    <path d="M1032.47+132.016C1028.95+127.326+1023.01+126.238+1019.22+129.585C1015.42+132.932+1015.21+139.447+1018.74+144.137C1022.26+148.827+1028.2+149.915+1031.99+146.568C1035.79+143.221+1036+136.706+1032.47+132.016Z" opacity="1" fill="#91ca9b"/>
    <path d="M989.176+114.26C882.118+73.7156+887.925+184.966+873.094+200.065C845.729+227.926+811.767+189.326+772.475+233.443C731.451+279.506+744.262+379.827+822.498+402.6C925.713+432.644+964.816+413.192+1018.07+362.507C1084.96+298.833+1084.51+150.364+989.176+114.26Z" opacity="1" fill="#000000"/>
    <path d="M990.987+124.1C882.089+83.5569+895.845+183.833+877.586+201.463C838.239+239.454+816.462+191.767+777.778+237.536C741.54+280.41+745.147+366.595+812.538+393.823C879.93+421.051+963.354+406.15+1017.4+355.458C1085.3+291.777+1082.51+158.172+990.987+124.1Z" opacity="1" fill="#000000"/>
    <path d="M991.853+122.148C885.702+76.4579+895.297+183.833+877.109+201.463C837.915+239.454+816.222+191.767+777.689+237.536C741.592+280.41+745.185+366.595+812.314+393.823C879.444+421.051+969.329+414.685+1019.46+359.859C1059.27+316.315+1061.81+249.197+1059.15+222.933C1054.31+175.251+1036.08+141.183+991.853+122.148Z" opacity="1" fill="#ffffff"/>
    <path d="M988.083+125.233C879.608+84.6898+895.297+183.833+877.109+201.463C837.915+239.454+816.222+191.767+777.689+237.536C741.592+280.41+745.185+366.595+812.314+393.823C855.544+411.357+900.814+424.435+943.23+414.259C949.816+412.679+959.448+406.943+965.7+404.376C981.71+397.805+996.486+387.859+1009.32+373.822C1049.14+330.279+1059.89+252.189+1056.44+226.032C1052.95+199.489+1035.66+143.014+988.083+125.233Z" opacity="1" fill="#91ca9b"/>
    <path d="M770.396+246.205C734.603+284.808+749.41+373.569+815.992+398.104C882.574+422.638+945.475+410.529+998.864+364.89C1013.3+352.551+1052.73+296.07+1033.82+306.114C976.774+336.421+903.4+298.96+878.331+262.209C853.263+225.459+784.385+231.118+770.396+246.205Z" fill-opacity="0.0737799" fill="#000000" opacity="1"/>
    <path d="M1014.19+177.192C1014.57+161.407+1004.85+148.537+992.492+148.446C980.132+148.356+969.807+161.079+969.43+176.865C969.054+192.651+978.768+205.521+991.128+205.611C1003.49+205.701+1013.81+192.978+1014.19+177.192Z" opacity="1" fill="#000000"/>
    <path d="M844.78+331.535L794.539+331.679C794.539+331.679+781.462+332.405+781.1+335.803C780.445+341.936+794.708+340.894+794.708+340.894C794.708+340.894+796.721+370.563+802.165+375.173C805.596+378.078+836.473+384.09+844.258+376.891C847.537+373.86+845.578+340.76+845.578+340.76C845.578+340.76+859.726+341.052+859.632+336.406C859.507+330.236+844.78+331.535+844.78+331.535Z" opacity="1" fill="#000000"/>
    <path d="M840.172+340.579C840.172+340.579+798.226+338.38+799.198+342.25C800.384+346.969+801.028+366.718+804.625+371.492C808.576+376.736+837.412+378.198+840.625+375.991C844.251+373.499+840.172+340.579+840.172+340.579Z" opacity="1" fill="#ffffff"/>
    <path d="M893.687+329.048L849.592+331.246C849.592+331.246+839.208+332.991+838.987+335.885C838.588+341.108+850.658+339.748+850.658+339.748C850.658+339.748+853.118+364.842+857.852+368.57C860.836+370.919+887.175+374.985+893.595+368.619C896.299+365.938+893.797+337.932+893.797+337.932C893.797+337.932+905.803+337.705+905.606+333.769C905.344+328.54+893.687+329.048+893.687+329.048Z" opacity="1" fill="#000000"/>
    <path d="M888.277+337.936C888.277+337.936+853.578+337.498+854.5+340.747C855.625+344.71+856.479+360.884+859.651+364.813C863.135+369.128+887.822+369.956+890.491+367.976C893.503+365.742+888.277+337.936+888.277+337.936Z" opacity="1" fill="#f6f6f6"/>
    <path d="M945.027+174.906C945.371+160.336+936.508+148.458+925.231+148.374C913.955+148.291+904.535+160.034+904.191+174.604C903.847+189.174+912.71+201.052+923.987+201.136C935.264+201.219+944.684+189.476+945.027+174.906Z" opacity="1" fill="#000000"/>
    <path d="M859.032+268.139C859.032+260.219+853.3+254.268+846.474+254.268C839.648+254.268+835.617+261.161+835.617+269.081C835.617+277.002+839.648+282.95+846.474+282.95C853.3+282.95+859.032+276.06+859.032+268.139Z" opacity="1" fill="#000000"/>
    <path d="M927.46+166.754C927.46+161.338+923.211+156.947+918.962+156.947C914.713+156.947+910.464+161.851+910.464+166.754C910.464+171.658+914.269+176.562+918.962+176.562C923.655+176.562+927.46+172.171+927.46+166.754Z" opacity="1" fill="#ffffff"/>
    <path d="M855.089+267.619C855.089+265.545+854.712+263.738+853.974+262.295C852.773+259.942+850.616+258.556+847.581+258.556C842.684+258.556+838.714+262.977+838.714+268.43C838.714+273.883+842.684+278.304+847.581+278.304C852.478+278.304+855.089+273.072+855.089+267.619Z" opacity="1" fill="#436c49"/>
    <path d="M775.45+259.869C775.45+252.449+772.056+247.864+768.658+247.447C763.108+246.765+761.951+246.202+757.661+260.243C753.37+274.284+759.784+274.455+765.376+274.455C770.967+274.455+775.45+267.289+775.45+259.869Z" opacity="1" fill="#000000"/>
    <path d="M772.014+262.268C772.014+256.595+771.002+253.163+769.162+252.454C764.645+250.714+764.863+254.558+763.212+260.447C761.034+268.216+759.59+271.353+764.355+271.353C769.12+271.353+772.014+267.942+772.014+262.268Z" opacity="1" fill="#436c49"/>
    <path d="M1004.22+166.015C1004.22+164.428+1002.99+163.141+1001.47+163.141C999.946+163.141+998.711+164.428+998.711+166.015C998.711+167.602+999.946+168.889+1001.47+168.889C1002.99+168.889+1004.22+167.602+1004.22+166.015Z" opacity="1" fill="#ffffff"/>
    <path d="M994.267+167.283C994.267+161.421+989.68+156.668+985.093+156.668C980.506+156.668+975.919+161.976+975.919+167.283C975.919+172.591+980.026+177.899+985.093+177.899C990.16+177.899+994.267+173.146+994.267+167.283Z" opacity="1" fill="#ffffff"/>
    <path d="M1003.23+461.656C1003.23+461.656+1021.26+469.118+1032.23+469.088C1043.2+469.058+1027.74+524.868+1027.74+524.868C1027.74+524.868+1030.26+507.562+1025.32+494.161C1017.28+472.347+1003.23+461.656+1003.23+461.656Z" fill-opacity="0.0737799" fill="#000000" opacity="1"/>
    <path d="M926.557+478.69C926.557+473.385+930.011+468.947+935.24+468.947C940.468+468.947+944.983+475.411+944.983+480.716C944.983+486.021+939.793+488.433+934.564+488.433C929.335+488.433+926.557+483.995+926.557+478.69Z" opacity="1" fill="#000000"/>
    <path d="M929.917+479.325C929.917+475.417+931.347+472.558+935.203+472.558C939.059+472.558+940.131+475.026+940.131+478.933C940.131+482.841+939.096+484.961+935.24+484.961C931.383+484.961+929.917+483.232+929.917+479.325Z" opacity="1" fill="#79ae81"/>
    <path d="M1058.84+262.168C1058.84+262.168+1055.33+299.075+1049.95+315.091C1044.57+331.108+1020.02+364.174+1017.14+363.686C1014.78+363.286+1036.61+334.21+1045.13+313.438C1056.05+286.83+1058.84+262.168+1058.84+262.168Z" opacity="1" fill="#000000"/>
    <path d="M1001.51+403.834C1002.46+403.795+1001.19+415.317+1001.09+426.102C1001+436.887+1001.13+446.975+1001.13+446.975L997.182+445.568C997.182+445.568+998.308+403.964+1001.51+403.834Z" opacity="1" fill="#000000"/>
    <path d="M936.345+162.109C936.345+160.522+935.111+159.235+933.588+159.235C932.066+159.235+930.831+160.522+930.831+162.109C930.831+163.696+932.066+164.983+933.588+164.983C935.111+164.983+936.345+163.696+936.345+162.109Z" opacity="1" fill="#ffffff"/>
    <path d="M905.675+145.2C906.004+154.739+916.063+161.807+930.204+160.192C944.344+158.576+946.46+155.431+946.131+145.892C945.803+136.353+940.823+137.439+926.682+139.055C912.542+140.67+905.347+135.66+905.675+145.2Z" opacity="1" fill="#000000"/>
    <path d="M900.807+141.916C901.222+149.616+913.947+155.32+931.833+154.016C949.72+152.713+952.396+150.174+951.981+142.475C951.565+134.776+945.265+135.653+927.379+136.956C909.492+138.26+900.392+134.217+900.807+141.916Z" opacity="1" fill="#91ca9b"/>
    <path d="M970.074+149.252C970.428+158.791+981.302+165.859+996.587+164.244C1011.87+162.628+1014.16+159.483+1013.8+149.944C1013.45+140.405+1008.07+141.491+992.781+143.107C977.496+144.722+969.719+139.712+970.074+149.252Z" opacity="1" fill="#000000"/>
    <path d="M964.341+145.968C964.768+153.668+977.848+159.372+996.234+158.068C1014.62+156.765+1017.35+154.713+1014.65+145.339C1014.65+145.339+1010.04+139.705+991.655+141.008C973.269+142.312+963.914+138.269+964.341+145.968Z" opacity="1" fill="#91ca9b"/>
    <path d="M945.224+202.392C945.386+192.848+935.217+185.194+920.311+185.97C905.404+186.745+903.02+189.76+902.858+199.304C902.696+208.849+907.974+208.059+922.881+207.284C937.787+206.508+945.063+211.937+945.224+202.392Z" opacity="1" fill="#000000"/>
    <path d="M950.153+205.959C950.126+198.247+937.092+191.797+918.275+192.039C899.459+192.281+896.519+194.657+896.546+202.37C896.573+210.082+903.223+209.58+922.039+209.337C940.856+209.095+950.18+213.672+950.153+205.959Z" opacity="1" fill="#e6f6e8"/>
    <path d="M1012.28+204.807C1012.45+195.263+1002.11+187.609+986.959+188.385C971.808+189.16+969.385+192.175+969.22+201.719C969.056+211.264+974.42+210.474+989.571+209.698C1004.72+208.923+1012.12+214.352+1012.28+204.807Z" opacity="1" fill="#000000"/>
    <path d="M1017.29+208.374C1017.26+200.662+1004.01+194.212+984.89+194.454C965.765+194.696+962.778+197.072+962.805+204.785C962.832+212.497+969.591+211.995+988.715+211.752C1007.84+211.51+1017.32+216.087+1017.29+208.374Z" opacity="1" fill="#e6f6e8"/>
    <path d="M831.318+401.065C831.318+401.065+851.159+407.972+884.904+412.622C904.596+415.335+909.099+414.59+909.527+415.396C911.186+418.522+904.855+418.42+886.147+416.681C870.761+415.251+838.434+406.659+838.434+406.659L831.318+401.065Z" opacity="1" fill="#000000"/>
    <path d="M858.778+411.737L905.621+416.846C905.621+416.846+879.515+422.975+872.881+445.939C866.246+468.904+866.204+507.874+866.204+507.874C866.204+507.874+858.461+501.198+856.604+477.164C854.748+453.13+858.778+411.737+858.778+411.737Z" fill-opacity="0.0737799" fill="#000000" opacity="1"/>
    <path d="M321.688+127.173C326.879+116.36+342.81+110.522+353.032+115.429C363.254+120.336+366.395+134.954+361.204+145.766C356.014+156.579+342.124+162.883+331.902+157.976C321.679+153.068+316.497+137.986+321.688+127.173Z" opacity="1" fill="#000000"/>
    <path d="M326.942+132.256C334.75+117.059+346.247+116.07+352.802+122.285C358.614+127.796+365.619+141.717+364.194+127.63C363.426+120.047+369.221+148.196+366.423+154.024C363.568+159.971+333.987+162.096+342.68+159.795C351.468+157.469+342.271+156.072+339.086+155.339C330.294+153.316+322.134+141.614+326.942+132.256Z" opacity="1" fill="#dad57d"/>
    <path d="M337.704+135.2C340.48+129.418+346.835+126.702+351.9+129.133C356.964+131.565+358.82+138.222+356.044+144.004C353.269+149.785+346.913+152.501+341.849+150.07C336.784+147.639+334.929+140.981+337.704+135.2Z" opacity="1" fill="#000000"/>
    <path d="M335.924+140.496C338.7+134.714+345.055+131.999+350.119+134.43C355.184+136.861+357.039+143.519+354.264+149.3C351.489+155.082+345.133+157.798+340.069+155.366C335.004+152.935+333.149+146.277+335.924+140.496Z" opacity="1" fill="#dad57d"/>
    <path d="M443.009+437.507C439.78+413.787+323.788+421.388+289.207+421.388C196.04+421.388+120.514+442.799+120.514+469.245C120.514+495.692+249.956+492.354+343.123+492.354C378.609+492.354+448.731+479.544+443.009+437.507Z" opacity="1" style="fill: rgba(0, 0, 0, 0.11);"/>
    <path d="M343.114+329.077L431.279+329.077C431.279+329.077+421.313+438.706+418.941+450.901C416.384+464.056+347.968+462.823+344.334+451.087C340.7+439.352+343.114+329.077+343.114+329.077Z" opacity="1" fill="#000000"/>
    <path d="M343.114+329.077L431.279+329.077C431.279+329.077+415.322+434.691+412.95+446.886C410.392+460.041+348.484+454.997+344.85+443.262C341.216+431.527+343.114+329.077+343.114+329.077Z" opacity="1" fill="#b4af60"/>
    <path d="M184.313+322.487L272.478+322.487C272.478+322.487+262.511+432.117+260.14+444.312C257.582+457.467+189.167+456.233+185.532+444.498C181.898+432.763+184.313+322.487+184.313+322.487Z" opacity="1" fill="#000000"/>
    <path d="M184.313+322.487L272.478+322.487C272.478+322.487+255.738+430.252+253.366+442.448C250.808+455.602+186.427+439.167+182.793+427.432C179.159+415.697+184.313+322.487+184.313+322.487Z" opacity="1" fill="#b4af60"/>
    <path d="M148.905+324.33C155.775+309.398+168.126+366.034+155.389+379.935C142.652+393.836+100.383+395.507+98.762+381.605C97.1411+367.704+131.925+361.239+148.905+324.33Z" opacity="1" fill="#000000"/>
    <path d="M158.16+320.385C165.03+305.454+175.806+354.6+163.069+368.501C150.332+382.402+107.615+393.269+105.994+379.368C104.373+365.467+141.179+357.294+158.16+320.385Z" opacity="1" fill="#ffffff"/>
    <path d="M176.032+290.954C227.751+256.588+305.98+259.279+359.282+303.755C401.838+339.264+404.638+454.357+397.774+465.468C389.951+478.132+319.256+475.504+310.844+454.856C302.139+433.49+314.512+426.187+265.395+416.698C212.406+406.46+239.796+461.018+209.409+464.592C176.805+468.427+164.404+469.961+153.8+449.898C145.355+433.921+115.645+331.079+176.032+290.954Z" opacity="1" fill="#000000"/>
    <path d="M379.804+127.743C502.987+84.7488+498.162+200.107+522.234+221.615C554.503+250.446+584.655+207.193+629.765+253.964C676.862+302.797+658.702+414.232+579.658+434.155C460.6+464.164+410.632+444.649+349.5+390.915C272.701+323.411+276.281+163.875+379.804+127.743Z" opacity="1" fill="#000000"/>
    <path d="M297.683+276.091C315.162+284.106+332.65+296.89+351.203+312.371C374.656+331.94+386.266+371.875+390.816+405.646C394.522+433.155+393.542+456.574+390.461+461.562C382.638+474.226+325.197+470.476+316.785+449.828C313.256+441.165+312.05+434.896+308.589+429.871C306.441+426.752+303.423+424.113+298.442+421.677C291.657+418.361+281.23+415.424+264.393+412.171C251.386+409.658+244.299+411.703+237.677+412.524C231.056+413.345+220.09+416.546+218.78+418.194C217.373+419.964+230.293+423.008+229.317+425.106C222.704+439.319+223.984+459.248+206.046+460.24C175.229+461.944+158.885+473.06+149.904+419.216C149.092+414.35+148.34+408.953+147.644+402.971C146.623+394.208+145.72+384.189+144.919+372.74C137.515+267.002+264.946+261.08+297.683+276.091Z" opacity="1" fill="#ffffff"/>
    <path d="M297.683+276.091C315.162+284.106+332.65+296.89+351.203+312.371C374.656+331.94+386.266+371.875+390.816+405.646C394.522+433.155+393.542+456.574+390.461+461.562C382.638+474.226+325.197+470.476+316.785+449.828C313.256+441.165+312.05+434.896+308.589+429.871C306.441+426.752+303.423+424.113+298.442+421.677C291.657+418.361+281.23+415.424+264.393+412.171C251.386+409.658+244.299+411.703+237.677+412.524C231.056+413.345+220.09+416.546+218.78+418.194C217.373+419.964+230.293+423.008+229.317+425.106C222.704+439.319+223.984+459.248+206.046+460.24C175.229+461.944+158.885+473.06+149.904+419.216C149.092+414.35+148.34+408.953+147.644+402.971C146.623+394.208+145.392+384.207+144.919+372.74C141.306+285.23+264.946+261.08+297.683+276.091Z" opacity="1" fill="#dad57d"/>
    <path d="M380.587+138.168C505.607+95.1864+489.814+201.494+510.776+220.184C555.948+260.46+580.95+209.905+625.361+258.427C666.964+303.88+662.823+395.249+585.454+424.115C508.086+452.981+412.311+437.183+350.26+383.443C272.308+315.931+275.519+174.289+380.587+138.168Z" opacity="1" fill="#000000"/>
    <path d="M381.641+138.168C506.175+95.1864+490.444+201.494+511.324+220.184C556.321+260.46+581.225+209.905+625.463+258.427C666.904+303.88+662.779+395.249+585.712+424.115C508.644+452.981+405.452+446.231+347.9+388.107C302.192+341.945+299.274+270.79+302.335+242.946C307.892+192.395+327.021+157.019+381.641+138.168Z" opacity="1" fill="#ffffff"/>
    <path d="M161.645+321.478C168.515+306.547+176.887+355.936+164.15+369.837C151.413+383.738+102.751+392.982+105.994+379.368C108.227+369.995+144.664+358.387+161.645+321.478Z" opacity="1" fill="#dad57d"/>
    <path d="M385.343+142.445C509.877+99.4636+490.444+201.494+511.324+220.184C556.321+260.46+581.225+209.905+625.463+258.427C666.904+303.88+662.779+395.249+585.712+424.115C508.644+452.981+404.24+448.366+346.688+390.242C300.98+344.08+298.501+276.05+302.46+248.32C306.476+220.18+330.723+161.296+385.343+142.445Z" opacity="1" fill="#dad57d"/>
    <path d="M633.836+267.618C674.928+308.543+650.915+408.848+574.475+434.859C498.036+460.869+432.837+441.826+371.544+393.441C354.973+380.36+309.707+320.482+331.413+331.131C396.904+363.26+481.141+323.546+509.921+284.585C538.701+245.623+617.776+251.623+633.836+267.618Z" fill-opacity="0.0581897" fill="#000000" opacity="1"/>
    <path d="M346.555+205.782C346.123+189.047+357.275+175.403+371.464+175.307C385.654+175.212+397.508+188.7+397.94+205.436C398.372+222.171+387.22+235.815+373.03+235.911C358.841+236.006+346.988+222.518+346.555+205.782Z" opacity="1" fill="#000000"/>
    <path d="M538.795+370.421C569.573+367.863+576.546+364.663+577.07+367.365C578.069+372.512+564.419+376.576+564.419+376.576C564.419+376.576+564.218+401.828+559.199+406.101C556.037+408.793+526.384+415.978+518.392+410.413C515.026+408.069+514.973+379.916+514.973+379.916C514.973+379.916+499.05+378.19+498.867+374.251C498.623+369.019+508.377+372.95+538.795+370.421Z" opacity="1" fill="#000000"/>
    <path d="M438.866+188.793C438.471+173.347+448.646+160.754+461.592+160.665C474.539+160.577+485.353+173.027+485.748+188.473C486.142+203.919+475.967+216.512+463.021+216.6C450.075+216.689+439.26+204.239+438.866+188.793Z" opacity="1" fill="#000000"/>
    <path d="M532.077+299.801C532.077+291.88+538.658+285.929+546.495+285.929C554.332+285.929+558.959+292.822+558.959+300.743C558.959+308.663+554.332+314.611+546.495+314.611C538.658+314.611+532.077+307.721+532.077+299.801Z" opacity="1" fill="#000000"/>
    <path d="M342.96+243.329C341.609+235.486+356.264+224.757+381.443+220.234C406.622+215.712+414.281+221.935+415.632+229.778C416.984+237.621+408.018+236.633+382.839+241.155C357.66+245.677+344.311+251.172+342.96+243.329Z" opacity="1" fill="#ffffff"/>
    <path d="M459.034+180.151C459.034+174.409+463.912+169.754+468.79+169.754C473.668+169.754+478.546+174.952+478.546+180.151C478.546+185.35+474.178+190.548+468.79+190.548C463.402+190.548+459.034+185.893+459.034+180.151Z" opacity="1" fill="#ffffff"/>
    <path d="M436.381+222.134C435.44+214.866+450.11+206.359+472.493+203.076C494.876+199.793+498.668+201.482+499.609+208.75C500.551+216.017+492.588+216.785+470.205+220.068C447.822+223.351+437.322+229.401+436.381+222.134Z" opacity="1" fill="#ffffff"/>
    <path d="M536.604+299.28C536.604+297.206+537.037+295.399+537.884+293.956C539.263+291.604+541.74+290.217+545.224+290.217C550.846+290.217+555.403+294.638+555.403+300.091C555.403+305.545+550.846+309.965+545.224+309.965C539.602+309.965+536.604+304.733+536.604+299.28Z" opacity="1" fill="#8c884e"/>
    <path d="M628.034+291.53C628.034+284.11+633.18+279.245+639.599+279.245C646.019+279.245+643.531+277.863+648.456+291.904C653.382+305.945+646.019+306.116+639.599+306.116C633.18+306.116+628.034+298.951+628.034+291.53Z" opacity="1" fill="#000000"/>
    <path d="M631.978+293.93C631.978+288.256+633.14+284.824+635.252+284.115C640.438+282.375+640.188+286.219+642.083+292.109C644.583+299.877+646.241+303.014+640.771+303.014C635.301+303.014+631.978+299.604+631.978+293.93Z" opacity="1" fill="#8c884e"/>
    <path d="M424.384+432.97C433.775+436.646+400.069+426.736+400.069+426.736C400.069+426.736+367.124+411.036+366.443+404.453C365.762+397.87+399.992+423.422+424.384+432.97Z" opacity="1" fill="#000000"/>
    <path d="M305.344+315.858C305.344+315.858+301.767+285.845+303.44+294.365C306.941+312.184+323.749+346.917+319.601+347.529C316.44+347.996+305.344+315.858+305.344+315.858Z" opacity="1" fill="#000000"/>
    <path d="M262.208+268.37L300.573+274.224L313.164+333.422C313.164+333.422+300.872+304.998+292.076+288.913C283.279+272.829+262.208+268.37+262.208+268.37Z" fill-opacity="0.0851933" fill="#000000" opacity="1"/>
    <path d="M351.696+196.038C351.696+194.356+353.113+192.992+354.861+192.992C356.609+192.992+358.026+194.356+358.026+196.038C358.026+197.721+356.609+199.085+354.861+199.085C353.113+199.085+351.696+197.721+351.696+196.038Z" opacity="1" fill="#ffffff"/>
    <path d="M441.5+184.725C441.5+183.042+442.917+181.678+444.665+181.678C446.413+181.678+447.83+183.042+447.83+184.725C447.83+186.407+446.413+187.771+444.665+187.771C442.917+187.771+441.5+186.407+441.5+184.725Z" opacity="1" fill="#ffffff"/>
    <path d="M369.426+195.278C369.426+189.062+374.692+184.023+379.959+184.023C385.225+184.023+390.491+189.65+390.491+195.278C390.491+200.905+385.775+206.532+379.959+206.532C374.142+206.532+369.426+201.493+369.426+195.278Z" opacity="1" fill="#ffffff"/>
    <path d="M141.854+346.479L146.607+343.348C146.607+343.348+144.621+353.028+143.302+353.56C138.651+355.437+141.854+346.479+141.854+346.479Z" opacity="1" fill="#000000"/>
    <path d="M145.648+380.673C147.908+382.702+146.736+396.243+146.939+399.123C147.238+403.373+144.058+388.187+140.245+387.003C134.877+385.336+127.307+385.421+129.298+384.923C139.645+382.336+143.387+378.644+145.648+380.673Z" opacity="1" fill="#000000"/>
    <path d="M521.314+380.699C521.665+378.36+556.908+375.689+557.908+379.164C558.908+382.638+558.573+382.257+558.521+386.416C558.47+390.576+524.496+395.479+522.329+391.08C520.93+388.238+520.607+385.409+521.314+380.699Z" opacity="1" fill="#ffffff"/>
    <path stroke="#000000" stroke-width="1.64" d="M1093.46+715.813C1104.65+737.499+1137.72+744.941+1158.9+749.139C1171.26+751.591+1192.68+751.459+1190.19+743.991C1188.18+737.949+1168.38+733.321+1166.61+732.767C1151.99+728.186+1130.74+722.057+1116.38+717.73C1108.76+715.433+1101.18+712.986+1093.45+711.065C1092.46+710.817+1089.89+709.552+1090.45+710.406C1091.79+712.427+1114.35+714.774+1116.11+715.17C1129.65+718.229+1165.34+728.351+1172.99+707.753C1175.28+701.6+1170.82+697.695+1165.49+695.895C1158.7+693.605+1151.61+692.025+1144.48+691.436C1135.37+690.685+1109.31+692.03+1098.05+693.077C1094.75+693.385+1091.42+693.668+1088.2+694.468C1086.79+694.819+1083.11+695.707+1084.34+696.488C1090.54+700.433+1099.03+695.662+1106.31+694.705C1115.1+693.55+1123.96+692.71+1132.59+690.699C1143.73+688.1+1172.26+679.882+1176.69+665.869C1178.27+660.881+1166.15+667.092+1161.34+669.129C1156.49+671.177+1151.71+673.373+1146.98+675.68C1139.09+679.527+1120.8+686.913+1121.26+692.066C1121.33+692.831+1122.4+691.037+1123.01+690.57C1127.57+687.08+1131.95+683.338+1136.76+680.198C1149.28+672.011+1166.98+666.118+1175.81+653.055C1178.66+648.837+1185.66+640.671+1180.98+638.681C1169.8+633.934+1139.56+660.488+1133.89+668.768C1133.37+669.519+1128.92+677.989+1132.67+680.242C1139.54+684.377+1152.08+664.088+1153.44+662.347C1160.25+653.637+1172.48+626.168+1163.46+615.309C1150.01+599.114+1119.52+627.072+1128.46+643.388C1131.3+648.562+1141.8+647.267+1145.09+646.019C1151.43+643.617+1157.61+640.385+1162.77+635.992C1172.97+627.304+1183.27+618.25+1190.74+607.13C1210.7+577.422+1219.74+534.667+1199.86+502.419L1201.7+501.816C1209.44+512.389+1213.31+525.9+1214.64+538.937C1218.79+579.767+1194.3+615.34+1163.85+639.378C1154.3+646.92+1143.48+652.118+1131.57+648.042C1108.65+640.195+1147.7+591.696+1166.38+615.419C1178.15+630.366+1155.94+667.246+1143.96+677.922C1140.1+681.358+1134.54+686.058+1130+680.86C1123.72+673.682+1139.59+658.939+1142.29+656.623C1149.08+650.806+1171.65+629.289+1183.85+639.749C1188.13+643.419+1181.03+650.919+1177.81+655.544C1169.6+667.324+1151.06+677.985+1138.38+683.31C1132.54+685.759+1126.08+686.36+1120.06+688.306C1119.57+688.463+1118.7+689.799+1119.13+689.526C1132.21+681.258+1145.84+669.481+1161.33+665.83C1167.29+664.427+1181.58+663.356+1179.4+669.07C1173.74+683.873+1145.62+691.803+1132.94+694.665C1124.06+696.67+1115.02+698.231+1105.93+698.701C1098.19+699.102+1082.25+700.315+1083.47+692.656C1084.24+687.791+1093.03+690.079+1097.93+689.648C1104.19+689.097+1110.45+688.569+1116.73+688.346C1130.13+687.871+1170.01+683.611+1176.69+702.754C1181.44+716.35+1160.69+722.97+1152.71+724.25C1135.96+726.935+1119.15+720.542+1103.12+716.754C1099.48+715.894+1085.17+711.364+1091.44+706.243C1094.06+704.112+1110.96+711.319+1117.7+713.299C1126.75+715.953+1135.84+718.446+1144.88+721.139C1155.45+724.289+1194.25+729.966+1192.5+749.114C1191.87+755.998+1177.81+756.594+1174.82+756.461C1168.9+756.199+1163.01+755.109+1157.24+753.759C1136.01+748.792+1097.35+740.203+1089.99+715.145" fill="#000000" stroke-linecap="butt" opacity="1" stroke-linejoin="round"/>
  </g>
</svg>