<?xml version="1.0" encoding="utf-8"?>
<svg style="fill-rule:evenodd;clip-rule:evenodd;stroke-linecap:round;stroke-linejoin:round;" version="1.1" viewBox="0 0 1190.7 1190.73" xmlns="http://www.w3.org/2000/svg">
  <g id="Layer 1">
    <path d="M263.191+542.143C285.838+517.527+317.343+525.236+340.213+531.487C363.084+537.738+337.838+566.437+337.838+566.437C337.838+566.437+298.078+557.296+301.87+583.742C305.662+610.189+348.696+600.029+348.696+600.029C348.696+600.029+374.281+630.142+351.411+637.354C328.54+644.567+278.195+648.042+258.389+621.022C248.716+607.825+253.851+552.294+263.191+542.143Z" opacity="1" fill="#000000"/>
    <path d="M350.57+438.758L379.714+438.758L415.481+438.79L415.8+456.819L380.042+457.908L380.346+475.646L414.427+477.274L414.585+496.066L379.714+496.529L379.714+519.637L418.342+522.027L418.969+547.906L379.714+548.522L350.57+548.522L350.57+438.758Z" opacity="1" fill="#989898"/>
    <path d="M496.444+438.527L518.878+436.029L517.783+523.731L563.993+527.13L565.198+548.521L496.444+548.432L496.444+438.527Z" opacity="1" fill="#000000"/>
    <path d="M267.631+634.1L289.104+634.1L296.134+677.129L317.18+678.811L321.314+634.1L348.922+634.1L348.922+730.876L318.246+730.876L314.336+695.074L297.84+691.896L291.405+730.876L267.631+730.876L267.631+634.1Z" opacity="1" fill="#000000"/>
    <path d="M363.202+634.179L390.427+634.179L390.427+730.592L363.202+730.592L363.202+634.179Z" opacity="1" fill="#000000"/>
    <path d="M268.473+547.442C291.121+522.826+312.359+528.226+335.23+534.477C358.1+540.728+335.23+559.481+335.23+559.481C335.23+559.481+290.199+556.811+293.991+583.257C297.783+609.704+347.552+606.338+347.552+606.338C347.552+606.338+370.423+627.976+347.552+635.188C324.682+642.401+283.609+642.815+263.804+615.795C254.13+602.598+259.134+557.593+268.473+547.442Z" opacity="1" fill="#dad57d"/>
    <path d="M511.719+541.134L534.153+538.884L533.059+617.888L579.268+620.95L580.474+640.219L511.719+640.139L511.719+541.134Z" opacity="1" fill="#91b1ca"/>
    <path d="M 267.237 436.103 C 267.237 436.103 316.188 426.588 334.274 441.15 C 352.36 455.712 339.582 494.35 339.582 494.35 L 356.697 548.636 L 323.838 548.206 L 305.707 501.95 L 301.1 548.636 L 267.237 547.467 Z M 288.143 473.416 C 288.143 473.416 310.408 478.246 317.83 473.416 C 325.252 468.586 325.038 458.169 317.616 453.339 C 310.194 448.509 288.143 454.097 288.143 454.097 Z" opacity="1" fill="#000000"/>
    <path d="M350.57+438.758L379.714+438.758L415.481+438.79L415.8+456.819L380.042+457.908L380.346+475.646L414.427+477.274L414.585+496.066L379.714+496.529L379.714+519.637L418.342+522.027L418.969+547.906L379.714+548.522L350.57+548.522L350.57+438.758Z" opacity="1" fill="#000000"/>
    <path d="M 435.721 437.145 L 476.468 436.882 L 501.659 548.403 L 476.468 548.403 L 457.097 500.225 L 437.057 548.403 L 415.523 548.403 Z M 445.122 483.307 L 468.282 483.828 C 468.282 483.828 464.268 452.444 458.438 452.444 C 452.609 452.444 445.122 483.307 445.122 483.307 Z" opacity="1" fill="#000000"/>
    <path d="M496.444+438.527L518.878+436.029L517.783+523.731L563.993+527.13L565.198+548.521L496.444+548.432L496.444+438.527Z" opacity="1" fill="#000000"/>
    <path d="M267.631+626.874L289.104+626.874L296.134+673.116L317.18+674.924L321.314+626.874L348.922+626.874L348.922+730.876L318.246+730.876L314.336+692.401L297.84+688.986L291.405+730.876L267.631+730.876L267.631+626.874Z" opacity="1" fill="#000000"/>
    <path d="M363.202+634.179L390.427+634.179L390.427+730.592L363.202+730.592L363.202+634.179Z" opacity="1" fill="#000000"/>
    <path d="M 401.71 634.509 C 401.71 634.509 433.512 626.525 445.262 638.744 C 457.013 650.963 452.566 690.078 426.703 689.762 C 421.315 712.31 423.71 728.937 423.71 728.937 L 401.71 727.956 Z M 414.05 669.702 C 414.05 669.702 428.515 674.598 433.337 669.702 C 438.158 664.807 438.019 654.248 433.198 649.353 C 428.376 644.457 414.05 650.12 414.05 650.12 Z" opacity="1" fill="#000000"/>
    <path d="M 455.152 637.125 C 455.152 637.125 486.954 629.141 498.705 641.36 C 510.455 653.579 506.008 692.694 480.145 692.378 C 474.757 714.926 477.152 731.553 477.152 731.553 L 455.152 730.572 Z M 467.24 667.637 C 467.24 667.637 481.705 672.189 486.527 667.637 C 491.348 663.084 491.209 653.265 486.387 648.713 C 481.566 644.16 467.24 649.427 467.24 649.427 Z" opacity="1" fill="#000000"/>
    <path d="M 513.443 646.548 C 527.669 622.494 548.751 630.8 563.117 636.908 C 577.483 643.017 576.246 649.934 578.628 675.776 C 581.01 701.619 577.483 725.243 563.117 732.291 L 523.034 729.271 C 518.21 725.653 513.872 720.475 510.51 713.34 C 504.434 700.445 507.576 656.467 513.443 646.548 Z M 526.011 696.626 C 533.068 708.695 547.702 708.51 555.85 705.288 C 563.999 702.067 566 691.268 564.649 679.455 C 563.298 667.643 563.999 664.481 555.85 661.689 C 547.702 658.897 535.744 655.1 527.675 666.095 C 524.347 670.629 522.565 690.731 526.011 696.626 Z" opacity="1" fill="#000000"/>
    <path d="M268.473+547.442C291.121+522.826+312.359+528.226+335.23+534.477C358.1+540.728+335.23+559.481+335.23+559.481C335.23+559.481+290.199+556.811+293.991+583.257C297.783+609.704+347.552+606.338+347.552+606.338C347.552+606.338+370.423+627.976+347.552+635.188C324.682+642.401+283.609+642.815+263.804+615.795C254.13+602.598+259.134+557.593+268.473+547.442Z" opacity="1" fill="#dad57d"/>
    <path d="M 342.587 553.664 C 360.352 529.627 397.842 530.075 415.782 536.179 C 433.722 542.283 434.534 555.426 437.508 581.25 C 440.483 607.074 433.474 634.189 415.534 641.232 C 397.594 648.275 358.526 649.713 342.99 623.329 C 335.402 610.443 335.26 563.576 342.587 553.664 Z M 372.569 601.742 C 378.31 611.284 396.243 609.464 401.037 607.56 C 410.398 603.84 413.154 593.926 411.136 585.434 C 409.906 580.263 407.463 572.412 401.375 570.928 C 398.409 570.205 382.977 565.013 373.487 575.529 C 369.573 579.865 368.985 595.785 372.569 601.742 Z" opacity="1" fill="#000000"/>
    <path d="M 351.105 552.523 C 368.87 528.487 395.196 536.787 413.136 542.891 C 431.077 548.995 429.532 555.907 432.507 581.73 C 435.481 607.554 431.077 631.161 413.136 638.204 C 395.196 645.247 362.978 645.651 347.442 619.267 C 339.854 606.381 343.778 562.436 351.105 552.523 Z M 372.371 601.846 C 378.112 611.388 396.926 611.204 401.72 609.3 C 411.081 605.58 413.334 594.03 411.316 585.538 C 410.086 580.367 408.02 571.509 401.932 570.025 C 398.966 569.302 382.779 565.117 373.289 575.633 C 369.375 579.969 368.787 595.889 372.371 601.846 Z" opacity="1" fill="#91ca9b"/>
    <path d="M 368.877 572.056 C 378.954 561.069 393.886 564.863 404.062 567.653 C 414.238 570.443 413.362 573.603 415.049 585.407 C 416.737 597.211 414.238 608.002 404.062 611.221 C 393.886 614.44 375.612 614.625 366.799 602.565 C 362.495 596.675 364.722 576.587 368.877 572.056 Z M 372.615 601.846 C 378.356 611.388 396.289 609.568 401.083 607.664 C 410.444 603.944 413.2 594.03 411.182 585.538 C 409.952 580.367 407.509 572.516 401.421 571.032 C 398.455 570.309 383.023 565.117 373.533 575.633 C 369.619 579.969 369.031 595.889 372.615 601.846 Z" opacity="1" fill="#000000"/>
    <path d="M 427.543 546.442 C 445.309 522.406 480.477 535.052 498.417 541.156 C 516.357 547.259 514.406 552.689 517.381 578.513 C 520.355 604.336 514.875 633.115 496.935 640.158 C 478.995 647.201 440.814 648.454 425.278 622.07 C 417.69 609.183 420.217 556.355 427.543 546.442 Z M 451.875 599.87 C 459.37 610.302 474.913 610.142 483.568 607.357 C 492.223 604.573 494.348 595.238 492.913 585.028 C 491.478 574.817 492.223 572.084 483.568 569.671 C 474.913 567.257 462.213 563.975 453.643 573.479 C 450.108 577.399 448.215 594.774 451.875 599.87 Z" opacity="1" fill="#000000"/>
    <path d="M 432.814 551.536 C 450.58 527.5 476.906 535.8 494.846 541.904 C 512.786 548.008 511.242 554.92 514.216 580.744 C 517.191 606.567 512.786 630.175 494.846 637.217 C 476.906 644.26 444.687 644.664 429.151 618.28 C 421.563 605.394 425.488 561.449 432.814 551.536 Z M 450.863 600.241 C 458.358 610.673 475.438 610.359 484.093 607.574 C 492.748 604.79 494.873 595.455 493.438 585.245 C 492.003 575.034 492.748 572.301 484.093 569.888 C 475.438 567.474 461.97 562.963 453.4 572.467 C 449.865 576.387 447.203 595.145 450.863 600.241 Z" opacity="1" fill="#ef9a9a"/>
    <path d="M505.795+539.139C505.795+539.139+530.692+526.424+538.252+536.198C543.024+542.368+538.996+611.205+539.095+614.85C539.191+618.336+580.236+614.878+582.333+618.982C584.431+623.086+587.503+640.591+583.671+643.292C579.31+646.367+512.237+647.867+509.246+644.725C502.407+637.541+505.795+539.139+505.795+539.139Z" opacity="1" fill="#000000"/>
    <path d="M 450.587 571.07 C 460.663 560.083 475.596 563.877 485.772 566.667 C 495.948 569.457 495.072 572.616 496.759 584.42 C 498.446 596.224 495.948 607.015 485.772 610.234 C 475.596 613.453 457.321 613.638 448.509 601.578 C 444.205 595.688 446.431 575.6 450.587 571.07 Z M 451.865 599.887 C 459.36 610.319 474.903 610.159 483.558 607.374 C 492.213 604.59 494.338 595.255 492.903 585.045 C 491.468 574.834 492.213 572.101 483.558 569.688 C 474.903 567.274 462.203 563.992 453.633 573.496 C 450.098 577.416 448.205 594.791 451.865 599.887 Z" opacity="1" fill="#000000"/>
    <path d="M511.719+541.134C514.205+536.267+531.66+534.856+534.153+538.884C538.328+545.629+534.624+614.144+536.359+618.202C537.809+621.593+575.666+616.177+579.268+620.95C581.84+624.356+583.143+637.466+578.618+640.46C573.426+643.895+514.9+643.457+511.719+640.139C507.465+635.703+508.394+547.645+511.719+541.134Z" opacity="1" fill="#91b1ca"/>
    <path d="M766.203+459.573C770.299+452.456+780.721+449.752+787.907+454.665C795.093+459.579+796.869+470.565+792.782+477.688C788.694+484.811+778.503+487.511+771.317+482.597C764.132+477.684+760.653+469.219+766.203+459.573Z" opacity="1" fill="#000000"/>
    <path d="M768.6+463.342C773.762+452.809+783.009+454.222+787.516+459.591C791.512+464.351+796.088+475.351+795.528+464.977C795.226+459.393+798.464+480.516+796.261+484.355C794.013+488.272+772.68+485.855+779.004+485.353C785.398+484.847+778.834+482.607+776.568+481.652C770.315+479.014+764.902+470.889+768.6+463.342Z" opacity="1" fill="#8b8f8c"/>
    <path d="M776.239+466.909C778.424+463.1+783.082+461.986+786.642+464.421C790.202+466.855+791.316+471.916+789.131+475.724C786.945+479.533+782.288+480.646+778.728+478.212C775.168+475.778+774.053+470.717+776.239+466.909Z" opacity="1" fill="#000000"/>
    <path d="M775.13+470.353C775.648+474.713+779.947+464.278+786.28+467.206C790.195+469.016+789.862+475.507+787.677+479.315C785.491+483.123+780.834+484.237+777.274+481.803C773.714+479.368+774.873+468.188+775.13+470.353Z" opacity="1" fill="#8b8f8c"/>
    <path d="M771.867+474.774C768.967+475.496+765.889+475.607+765.116+471.524C759.019+471.374+755.263+487.735+768.269+487.497C779.305+487.295+775.747+474.484+771.867+474.774Z" opacity="1" fill="#000000"/>
    <path d="M771.52+477.687C769.842+478.812+766.301+480.473+765.528+476.39C764.975+474.021+757.844+482.252+766.725+484.536C772.726+486.079+775.109+478.558+771.52+477.687Z" fill-opacity="0.879733" fill="#ffffff" opacity="1"/>
    <path d="M948.851+460.392C946.349+447.006+872.182+489.127+872.182+489.127L900.544+566.689C900.544+566.689+951.798+476.157+948.851+460.392Z" opacity="1" fill="#000000"/>
    <path d="M943.872+464.7C941.309+457.55+867.972+494.747+867.972+494.747L894.134+566.811C894.134+566.811+946.798+472.862+943.872+464.7Z" opacity="1" fill="#dad57d"/>
    <path d="M917.138+416.413C910.321+406.318+849.279+479.897+849.279+479.897L902.968+530.243C902.968+530.243+925.167+428.302+917.138+416.413Z" opacity="1" fill="#000000"/>
    <path d="M913.06+420.699C908.217+416.004+848.943+489.944+848.943+489.944L898.079+537.078C898.079+537.078+918.589+426.059+913.06+420.699Z" opacity="1" fill="#91ca9b"/>
    <path d="M861.572+394.14C851.56+388.274+818.005+485.464+818.005+485.464L884.905+501.244C884.905+501.244+873.364+401.048+861.572+394.14Z" opacity="1" fill="#000000"/>
    <path d="M893.924+487.839C893.609+488.536+902.923+499.767+904.951+503.207C905.58+504.275+917.699+432.101+916.586+428.236C916.101+426.552+904.859+474.605+893.924+487.839Z" fill-opacity="0.123716" fill="#000000" opacity="1"/>
    <path d="M860.293+401.668C854.002+399.717+819.94+492.608+819.94+492.608L883.606+511.959C883.606+511.959+867.476+403.896+860.293+401.668Z" opacity="1" fill="#ef9a9a"/>
    <path d="M 802.526 676.755 C 809.376 665.46 789.2 653.404 774.855 657.454 C 749.844 664.517 688.194 715.677 685.298 728.909 C 684.995 730.293 685.795 732.235 687.388 734.506 C 687.388 734.506 791.064 695.655 802.526 676.755 Z" opacity="1" fill="#000000"/>
    <path d="M863.819+471.036C863.504+471.712+879.476+474.317+881.505+477.654C882.134+478.69+866.941+411.832+865.829+408.084C865.344+406.45+874.754+458.198+863.819+471.036Z" fill-opacity="0.123716" fill="#000000" opacity="1"/>
    <path d="M 799.629 682.34 C 806.479 671.044 787.15 656.856 772.805 660.906 C 747.795 667.968 690.944 720.449 689.95 728.991 C 689.82 730.109 690.156 731.433 690.865 732.898 L 764.535 735.816 C 781.71 716.737 792.128 694.709 799.629 682.34 Z" opacity="1" fill="#676767"/>
    <path d="M 754.301 628.122 L 901.275 619.378 C 901.275 619.378 893.965 717.446 901.25 740.194 L 733.749 735.29 C 737.072 685.719 754.301 628.122 754.301 628.122 Z" opacity="1" fill="#000000"/>
    <path d="M 756.757 622.858 L 892.852 621.027 C 892.852 621.027 850.542 682.922 892.382 733.936 C 904.235 748.387 738.297 736.362 738.297 736.362 C 739.421 686.841 756.757 622.858 756.757 622.858 Z" opacity="1" fill="#8b8f8c"/>
    <path d="M 738.275 712.521 L 781.464 716.826 C 781.464 716.826 761.952 721.012 753.599 735.97 C 752.674 737.625 736.421 735.993 736.421 735.993 C 737.148 723.102 738.275 712.521 738.275 712.521 Z" fill-opacity="0.0737799" fill="#000000" opacity="1"/>
    <path d="M 237.273 728.824 C 253.005 714.937 971.868 732.236 990.643 744.745 C 995.081 747.702 999.188 751.161 1002.506 754.813 C 933.565 741.226 363.055 724.556 231.943 733.687 C 233.674 732.053 235.453 730.43 237.273 728.824 Z" opacity="1" fill="#000000"/>
    <path d="M878.09+652.403C879.19+639.752+906.919+639.352+916.44+649.729C933.039+667.821+943.777+739.769+936.927+751.586C929.193+764.93+885.123+764.832+877.814+756.491C865.171+742.062+876.251+673.569+878.09+652.403Z" opacity="1" fill="#000000"/>
    <path d="M871.655+657.414C872.754+644.763+905.078+642.341+914.599+652.718C931.199+670.81+937.664+739.941+933.341+747.451C928.32+756.174+887.701+764.595+880.054+752.32C872.406+740.045+869.816+678.58+871.655+657.414Z" opacity="1" fill="#ababab"/>
    <path d="M870.869+660.938C871.969+648.288+901.422+643.796+910.943+654.173C927.543+672.265+938.589+742.965+934.266+750.475C929.245+759.198+887.701+764.595+880.054+752.32C872.406+740.045+869.03+682.105+870.869+660.938Z" opacity="1" fill="#8b8f8c"/>
    <path d="M858.503+461.868C759.794+427.705+765.148+521.444+751.474+534.167C726.243+557.643+694.93+525.118+658.702+562.292C620.878+601.103+632.689+685.634+704.824+704.822C799.989+730.137+836.043+713.748+885.139+671.04C946.817+617.388+946.399+492.289+858.503+461.868Z" opacity="1" fill="#000000"/>
    <path d="M860.173+470.159C759.767+435.998+772.451+520.49+755.616+535.345C719.338+567.356+699.258+527.175+663.592+565.74C630.18+601.866+633.505+674.485+695.641+697.427C757.777+720.37+834.694+707.814+884.528+665.101C947.133+611.443+944.554+498.868+860.173+470.159Z" opacity="1" fill="#000000"/>
    <path d="M860.971+468.514C763.099+430.016+771.945+520.49+755.176+535.345C719.039+567.356+699.038+527.175+663.51+565.74C630.228+601.866+633.541+674.485+695.434+697.427C757.328+720.37+840.203+715.005+886.424+668.809C923.133+632.119+925.476+575.566+923.018+553.436C918.555+513.259+901.746+484.554+860.971+468.514Z" opacity="1" fill="#ababab"/>
    <path d="M861.313+472.73C760.114+439.31+773.478+524.769+756.51+539.301C719.945+570.618+699.707+531.309+663.758+569.037C630.082+604.379+633.434+675.421+696.061+697.866C736.391+712.32+778.625+723.1+818.196+714.712C824.34+713.41+833.326+708.681+839.159+706.565C854.095+701.148+867.88+692.95+879.855+681.379C916.998+645.486+927.033+581.116+923.817+559.554C920.553+537.674+905.699+487.388+861.313+472.73Z" opacity="1" fill="#8b8f8c"/>
    <path d="M656.785+573.045C623.784+605.572+637.436+680.361+698.825+701.034C760.215+721.707+818.21+711.504+867.435+673.048C880.743+662.652+917.097+615.06+899.665+623.524C847.069+649.06+779.416+617.496+756.303+586.53C733.19+555.564+669.683+560.332+656.785+573.045Z" fill-opacity="0.0737799" fill="#000000" opacity="1"/>
    <path d="M725.368+644.943L679.045+645.064C679.045+645.064+666.989+645.676+666.654+648.539C666.051+653.707+679.201+652.829+679.201+652.829C679.201+652.829+681.057+677.828+686.077+681.713C689.24+684.16+717.709+689.226+724.887+683.161C727.91+680.606+726.104+652.717+726.104+652.717C726.104+652.717+739.148+652.962+739.062+649.048C738.947+643.849+725.368+644.943+725.368+644.943Z" opacity="1" fill="#000000"/>
    <path d="M721.119+652.564C721.119+652.564+682.445+650.711+683.342+653.971C684.434+657.948+685.029+674.588+688.345+678.611C691.987+683.03+718.575+684.261+721.537+682.402C724.881+680.302+721.119+652.564+721.119+652.564Z" opacity="1" fill="#ffffff"/>
    <path d="M770.461+642.848L729.805+644.7C729.805+644.7+720.231+646.17+720.027+648.609C719.659+653.01+730.787+651.863+730.787+651.863C730.787+651.863+733.056+673.008+737.421+676.149C740.172+678.128+764.457+681.554+770.377+676.19C772.869+673.931+770.562+650.333+770.562+650.333C770.562+650.333+781.632+650.142+781.45+646.825C781.209+642.42+770.461+642.848+770.461+642.848Z" opacity="1" fill="#000000"/>
    <path d="M765.473+650.337C765.473+650.337+733.48+649.967+734.33+652.705C735.368+656.044+736.155+669.673+739.08+672.983C742.291+676.619+765.053+677.317+767.514+675.649C770.292+673.766+765.473+650.337+765.473+650.337Z" opacity="1" fill="#f6f6f6"/>
    <path d="M738.509+591.526C738.509+584.853+733.224+579.838+726.93+579.838C720.636+579.838+716.92+585.647+716.92+592.32C716.92+598.994+720.636+604.006+726.93+604.006C733.224+604.006+738.509+598.2+738.509+591.526Z" opacity="1" fill="#000000"/>
    <path d="M734.873+591.088C734.873+589.34+734.525+587.818+733.846+586.602C732.738+584.62+730.749+583.452+727.951+583.452C723.436+583.452+719.775+587.176+719.775+591.771C719.775+596.366+723.436+600.091+727.951+600.091C732.466+600.091+734.873+595.683+734.873+591.088Z" opacity="1" fill="#676767"/>
    <path d="M661.445+584.558C661.445+578.306+658.316+574.442+655.183+574.091C650.066+573.516+648.999+573.042+645.043+584.873C641.088+596.704+647.001+596.848+652.157+596.848C657.312+596.848+661.445+590.81+661.445+584.558Z" opacity="1" fill="#000000"/>
    <path d="M658.277+586.58C658.277+581.799+658.318+579.377+656.701+578.617C654.903+577.772+651.684+580.083+650.162+585.045C648.154+591.591+646.822+594.234+651.216+594.234C655.609+594.234+658.277+591.36+658.277+586.58Z" opacity="1" fill="#676767"/>
    <path d="M872.378+505.477C872.378+504.139+871.24+503.055+869.836+503.055C868.433+503.055+867.294+504.139+867.294+505.477C867.294+506.814+868.433+507.898+869.836+507.898C871.24+507.898+872.378+506.814+872.378+505.477Z" opacity="1" fill="#ffffff"/>
    <path d="M863.197+506.545C863.197+501.605+858.968+497.601+854.738+497.601C850.509+497.601+846.28+502.073+846.28+506.545C846.28+511.018+850.067+515.49+854.738+515.49C859.41+515.49+863.197+511.485+863.197+506.545Z" opacity="1" fill="#ffffff"/>
    <path d="M922.733+586.495C922.733+586.495+919.493+617.593+914.536+631.088C909.579+644.583+886.939+672.444+884.287+672.034C882.111+671.697+902.234+647.197+910.094+629.695C920.162+607.275+922.733+586.495+922.733+586.495Z" opacity="1" fill="#000000"/>
    <path d="M872.303+709.206C873.163+709.068+873.417+718.832+874.651+727.849C875.886+736.867+877.241+745.276+877.241+745.276L873.463+744.544C873.463+744.544+869.394+709.673+872.303+709.206Z" opacity="1" fill="#000000"/>
    <path d="M712.956+703.529C712.956+703.529+731.25+709.349+762.363+713.267C780.519+715.553+784.671+714.925+785.066+715.605C786.595+718.239+780.758+718.153+763.509+716.687C749.323+715.482+719.517+708.243+719.517+708.243L712.956+703.529Z" opacity="1" fill="#000000"/>
    <path d="M798.631+397.477C789.327+402.759+802.254+472.159+805.049+481.42C809.415+495.883+852.14+472.06+850.476+463.739C849.108+456.896+804.692+394.035+798.631+397.477Z" opacity="1" fill="#000000"/>
    <path d="M800.729+404.317C796.7+405.588+802.864+470.026+808.469+479.18C814.146+488.451+850.624+470.078+845.122+460.695C838.155+448.814+805.331+402.865+800.729+404.317Z" opacity="1" fill="#91b1ca"/>
    <path d="M912.193+509.56C911.696+510.185+916.652+521.547+917.459+525.539C917.709+526.778+946.054+469.663+946.054+469.663C946.054+469.663+926.142+498.946+912.193+509.56Z" fill-opacity="0.123716" fill="#000000" opacity="1"/>
    <path d="M839.217+446.525C839.217+446.525+837.313+475.243+810.441+483.608C819.952+486.09+842.89+473.322+847.341+464.668L839.217+446.525Z" fill-opacity="0.123716" fill="#000000" opacity="1"/>
    <path d="M838.477+501.755L807.318+501.755L807.318+514.66L838.477+514.66L838.477+501.755Z" opacity="1" fill="#000000"/>
    <path d="M773.179+502.129L763.934+502.129L763.934+510.968L773.179+510.968L773.179+502.129Z" opacity="1" fill="#000000"/>
    <path d="M832.304+504.786C829.935+503.835+814.105+504.492+812.604+505.29C811.103+506.088+811.393+509.763+812.702+510.963C814.011+512.163+829.329+512.561+830.936+511.465C832.542+510.369+834.674+505.737+832.304+504.786Z" opacity="1" fill="#ffffff"/>
    <path d="M911.88+511.408C911.88+511.408+783.486+488.655+760.691+518.581C751.196+531.045+811.52+538.295+811.52+538.295C811.52+538.295+812.976+524.761+818.235+524.749C824.632+524.734+821.639+540.944+835.158+542.455C848.676+543.966+870.188+536.29+873.852+531.508C882.431+520.308+911.88+511.408+911.88+511.408Z" fill-opacity="0.149032" fill="#000000" opacity="1"/>
    <path d="M876.868+499.84C867.085+495.635+844.081+495.116+826.506+496.299C821.472+496.638+821.386+524.947+825.007+537.489C827.661+546.685+868.296+546.33+873.034+541.375C883.932+529.977+882.314+502.181+876.868+499.84Z" opacity="1" fill="#000000"/>
    <path d="M871.972+501.521C862.188+497.316+833.208+496.687+829.536+499.954C824.29+504.621+824.036+522.875+827.656+535.416C830.311+544.612+866.239+542.696+870.976+537.741C881.874+526.344+877.418+503.862+871.972+501.521Z" opacity="1" fill="#ffffff"/>
    <path d="M870.025+503.629C860.241+499.423+834.902+499.839+831.636+502.606C828.235+505.488+825.733+522.529+829.611+535.025C831.304+540.482+863.94+542.067+868.465+536.995C875.767+528.81+875.471+505.97+870.025+503.629Z" opacity="1" fill="#000000"/>
    <path d="M908.684+504.033L877.084+503.841L880.259+516.989L914.927+514.986L908.684+504.033Z" opacity="1" fill="#000000"/>
    <path d="M908.42+506.566C899.96+506.905+880.762+506.136+880.762+506.136C880.762+506.136+881.237+507.874+881.602+509.427C881.967+510.981+882.224+514.296+882.224+514.296C885.585+514.886+903.078+512.773+910.914+511.892C912.598+511.702+909.984+506.503+908.42+506.566Z" opacity="1" fill="#ffffff"/>
    <path d="M868.068+535.248C868.068+535.248+861.775+527.749+851.979+519.123C842.184+510.496+839.302+505.592+836.418+503.319C833.535+501.046+830.916+508.068+830.916+508.068C830.916+508.068+835.885+515.569+845.242+524.114C854.598+532.659+858.953+536.645+860.988+537.295C866.554+539.073+868.068+535.248+868.068+535.248Z" opacity="1" fill="#ffffff"/>
    <path d="M859.175+538.424C859.175+538.424+853.265+535.121+843.47+526.494C833.674+517.868+829.808+511.196+829.808+511.196L829.303+517.349C829.303+517.349+830.344+520.516+839.701+529.061C849.057+537.606+853.171+539.108+853.171+539.108L859.175+538.424Z" opacity="1" fill="#ffffff"/>
    <path d="M762.646+498.668C772.429+494.463+793.311+493.948+810.885+495.131C815.919+495.47+816.005+523.779+812.385+536.32C809.73+545.516+769.095+545.161+764.358+540.207C753.46+528.809+757.2+501.009+762.646+498.668Z" opacity="1" fill="#000000"/>
    <path d="M765.42+500.353C775.203+496.147+804.184+495.519+807.855+498.785C813.102+503.453+813.356+521.706+809.735+534.248C807.081+543.444+771.152+541.527+766.415+536.573C755.517+525.175+759.974+502.694+765.42+500.353Z" opacity="1" fill="#ffffff"/>
    <path d="M767.367+502.46C777.15+498.255+802.489+498.671+805.755+501.438C809.156+504.32+811.659+521.361+807.781+533.856C806.087+539.314+773.451+540.898+768.926+535.827C761.624+527.642+761.921+504.801+767.367+502.46Z" opacity="1" fill="#000000"/>
    <path d="M806.457+530.812C803.622+529.308+800.835+526.581+791.039+517.954C781.244+509.328+778.386+505.804+775.503+503.531C772.62+501.258+766.702+504.885+766.702+504.885C766.702+504.885+774.945+514.4+784.302+522.946C793.658+531.491+797.089+534.325+799.124+534.975C804.69+536.753+808.168+531.72+806.457+530.812Z" opacity="1" fill="#ffffff"/>
    <path d="M796.491+535.802C796.491+535.802+792.325+533.952+782.53+525.326C772.734+516.699+766.025+507.067+766.025+507.067L764.671+511.053C764.671+511.053+769.404+519.347+778.76+527.893C788.117+536.438+790.699+536.78+790.699+536.78L796.491+535.802Z" opacity="1" fill="#ffffff"/>
    <path d="M904.378+641.134C892.833+653.993+829.086+741.48+801.525+738.751C786.723+737.286+768.19+715.031+766.388+715.298L753.221+713.583C749.124+714.453+782.264+754.049+801.977+757.565C817.795+760.385+884.795+688.951+906.438+661.876C924.259+639.582+909.164+635.803+904.378+641.134Z" opacity="1" fill="#000000"/>
    <path d="M905.247+644.927C900.936+651.563+829.001+746.275+801.44+743.547C786.638+742.082+765.008+716.058+763.206+716.325L756.67+714.439C752.573+715.309+793.43+754.574+795.921+756.058C809.724+764.281+889.894+681.162+909.217+652.386C914.291+644.83+909.559+638.291+905.247+644.927Z" opacity="1" fill="#ffffff"/>
    <path d="M838.774+759.997L830.36+735.423L803.804+725.373L775.614+738.509L766.108+760.526L780.323+788.353L803.359+798.247L827.493+788.27L838.774+759.997Z" opacity="1" fill="#000000"/>
    <path d="M834.953+760.258L827.234+738.122L803.101+727.92L777.945+740.574L768.571+760.462L780.133+784.642L802.226+794.426L825.587+786.203L834.953+760.258Z" opacity="1" fill="#ffffff"/>
    <path d="M831.898+760.408L824.267+739.921L802.489+731.73L778.454+742.992L771.124+760.946L781.519+781.037L800.814+790.413L822.333+782.096L831.898+760.408Z" opacity="1" fill="#000000"/>
    <path d="M820.086+742.16L801.852+736.06L782.893+743.615L802.656+758.781L820.086+742.16Z" opacity="1" fill="#608db1"/>
    <path d="M800.578+761.077L780.006+746.405L774.926+761.391L782.084+777.666L800.578+761.077Z" opacity="1" fill="#d67474"/>
    <path d="M819.518+780.837L803.437+763.997L785.066+779.606L801.138+786.172L819.518+780.837Z" opacity="1" fill="#629b6b"/>
    <path d="M828.269+762.063L823.603+745.259L805.732+761.628L821.046+778.074L828.269+762.063Z" opacity="1" fill="#c6c065"/>
    <path d="M800.578+761.077L780.006+746.405L796.782+761.829L782.084+777.666L800.578+761.077Z" fill-opacity="0.699332" fill="#f8f8f8" opacity="1"/>
    <path d="M809.196+761.386L823.603+745.259L805.732+761.628L821.046+778.074L809.196+761.386Z" fill-opacity="0.587291" fill="#ffffff" opacity="1"/>
    <path d="M820.086+742.16L803.091+755.65L782.893+743.615L802.656+758.781L820.086+742.16Z" fill-opacity="0.572383" fill="#ffffff" opacity="1"/>
    <path d="M819.518+780.837L803.437+763.997L785.066+779.606L803.431+767.614L819.518+780.837Z" fill-opacity="0.429844" fill="#ffffff" opacity="1"/>
    <path d="M908.934+463.963C904.498+455.958+893.21+452.917+885.427+458.443C877.645+463.97+875.721+476.327+880.148+484.338C884.575+492.35+895.612+495.387+903.395+489.86C911.177+484.334+914.945+474.813+908.934+463.963Z" opacity="1" fill="#000000"/>
    <path d="M906.337+468.202C900.747+456.356+891.366+458.518+885.851+463.984C873.09+476.631+877.064+488.345+879.45+492.662C881.885+497.069+901.919+493.524+895.069+492.96C888.145+492.39+895.254+489.871+897.708+488.796C904.48+485.83+910.343+476.691+906.337+468.202Z" opacity="1" fill="#8b8f8c"/>
    <path d="M898.065+472.214C895.698+467.931+890.654+466.678+886.798+469.416C882.942+472.154+881.735+477.846+884.102+482.129C886.469+486.413+891.513+487.666+895.369+484.928C899.225+482.19+900.432+476.498+898.065+472.214Z" opacity="1" fill="#000000"/>
    <path d="M901.246+471.555C897.362+471.707+900.553+477.544+898.488+477.756C895.687+478.044+892.644+470.292+888.373+473.454C886.565+474.793+886.828+479.853+885.262+481.689C883.536+483.715+883.136+477.083+882.073+477.969C874.87+483.972+893.088+491.704+896.944+488.966C900.8+486.228+906.136+471.363+901.246+471.555Z" opacity="1" fill="#8b8f8c"/>
    <path d="M936.694+713.793C924.014+717.137+881.238+722.533+871.396+721.923C868.932+721.77+869.194+733.839+874.132+738.561C877.14+741.437+928.171+742.893+939.352+730.766C941.373+728.574+941.824+712.44+936.694+713.793Z" opacity="1" fill="#000000"/>
    <path d="M935.858+716.67C919.117+720.524+883.578+723.905+873.724+724.276C870.398+724.401+873.416+731.988+874.237+735.11C875.295+739.135+925.987+741.057+937.168+728.929C939.188+726.738+937.643+716.26+935.858+716.67Z" opacity="1" fill="#ffffff"/>
    <path d="M931.726+728.17C931.726+720.814+925.675+714.851+918.21+714.851C910.745+714.851+904.694+720.814+904.694+728.17C904.694+735.526+910.745+741.489+918.21+741.489C925.675+741.489+931.726+735.526+931.726+728.17Z" opacity="1" fill="#000000"/>
    <path d="M928.808+728.167C928.922+723.734+924.462+716.286+918.768+716.823C913.803+717.291+908.666+720.677+908.666+728.033C908.666+735.389+913.51+738.899+918.156+739.244C922.686+739.579+928.625+735.35+928.808+728.167Z" opacity="1" fill="#ffffff"/>
    <path d="M927.302+727.917C927.302+722.419+923.771+717.962+919.415+717.962C915.06+717.962+911.529+722.419+911.529+727.917C911.529+733.415+915.06+737.871+919.415+737.871C923.771+737.871+927.302+733.415+927.302+727.917Z" fill-opacity="0.879733" fill="#000000" opacity="1"/>
    <path d="M924.789+728.154C924.789+723.822+922.24+720.311+919.096+720.311C915.952+720.311+913.404+723.822+913.404+728.154C913.404+732.485+915.952+735.996+919.096+735.996C922.24+735.996+924.789+732.485+924.789+728.154Z" opacity="1" fill="#ffffff"/>
    <path d="M921.804+726.674C921.147+725.368+919.512+724.864+918.153+725.548C916.794+726.232+916.225+727.845+916.882+729.15C917.074+729.532+916.042+732.874+915.488+735.152C915.206+736.312+916.054+736.674+916.751+735.685C918.152+733.697+920.025+730.531+920.532+730.276C921.892+729.592+922.461+727.979+921.804+726.674Z" opacity="1" fill="#000000"/>
    <path d="M921.128+728.882C921.673+727.493+920.999+726.489+919.553+726.096C918.106+725.703+917.843+725.189+917.297+726.579C917.189+726.854+914.59+729.467+912.96+730.428C912.96+730.428+911.11+732.579+913.36+732.012C915.308+731.521+918.36+729.868+918.736+729.969C920.182+730.362+920.582+730.272+921.128+728.882Z" opacity="1" fill="#000000"/>
  </g>
</svg>