<?xml version="1.0" encoding="utf-8"?>
<svg viewBox="0 0 314.951 408.123" xmlns="http://www.w3.org/2000/svg">
  <path d="M 128.561 65.688 C 132.657 58.571 143.079 55.867 150.265 60.78 C 157.451 65.694 159.227 76.68 155.14 83.803 C 151.052 90.926 140.861 93.626 133.675 88.712 C 126.49 83.799 123.011 75.334 128.561 65.688 Z" opacity="1" fill="#000000"/>
  <path d="M 130.958 69.457 C 136.12 58.924 145.367 60.337 149.874 65.706 C 153.87 70.466 158.446 81.466 157.886 71.092 C 157.584 65.508 160.822 86.631 158.619 90.47 C 156.371 94.387 135.038 91.97 141.362 91.468 C 147.756 90.962 141.192 88.722 138.926 87.767 C 132.673 85.129 127.26 77.004 130.958 69.457 Z" opacity="1" style="fill: rgb(218, 213, 125);"/>
  <path d="M 138.597 73.024 C 140.782 69.215 145.44 68.101 149 70.536 C 152.56 72.97 153.674 78.031 151.489 81.839 C 149.303 85.648 144.646 86.761 141.086 84.327 C 137.526 81.893 136.411 76.832 138.597 73.024 Z" opacity="1" fill="#000000"/>
  <path d="M 137.488 76.468 C 138.006 80.828 142.305 70.393 148.638 73.321 C 152.553 75.131 152.22 81.622 150.035 85.43 C 147.849 89.238 143.192 90.352 139.632 87.918 C 136.072 85.483 137.231 74.303 137.488 76.468 Z" opacity="1" style="fill: rgb(218, 213, 125);"/>
  <path d="M 134.225 80.889 C 131.325 81.611 128.247 81.722 127.474 77.639 C 121.377 77.489 117.621 93.85 130.627 93.612 C 141.663 93.41 138.105 80.599 134.225 80.889 Z" opacity="1" fill="#000000"/>
  <path d="M 133.878 83.802 C 132.2 84.927 128.659 86.588 127.886 82.505 C 127.333 80.136 120.202 88.367 129.083 90.651 C 135.084 92.194 137.467 84.673 133.878 83.802 Z" fill-opacity="0.879733" fill="#ffffff" opacity="1"/>
  <path d="M 311.209 66.507 C 308.707 53.121 234.54 95.242 234.54 95.242 L 262.902 172.804 C 262.902 172.804 314.156 82.272 311.209 66.507 Z" opacity="1" fill="#000000"/>
  <path d="M 306.23 70.815 C 303.667 63.665 230.33 100.862 230.33 100.862 L 256.492 172.926 C 256.492 172.926 309.156 78.977 306.23 70.815 Z" opacity="1" style="fill: rgb(255, 255, 255);"/>
  <path d="M 279.496 22.528 C 272.679 12.433 211.637 86.012 211.637 86.012 L 265.326 136.358 C 265.326 136.358 287.525 34.417 279.496 22.528 Z" opacity="1" fill="#000000"/>
  <path d="M 275.418 26.814 C 270.575 22.119 211.301 96.059 211.301 96.059 L 260.437 143.193 C 260.437 143.193 280.947 32.174 275.418 26.814 Z" opacity="1" style="fill: rgb(255, 255, 255);"/>
  <path d="M 223.93 0.255 C 213.918 -5.611 180.363 91.579 180.363 91.579 L 247.263 107.359 C 247.263 107.359 235.722 7.163 223.93 0.255 Z" opacity="1" fill="#000000"/>
  <path d="M 256.282 93.954 C 255.967 94.651 265.281 105.882 267.309 109.322 C 267.938 110.39 280.057 38.216 278.944 34.351 C 278.459 32.667 267.217 80.72 256.282 93.954 Z" fill-opacity="0.123716" fill="#000000" opacity="1"/>
  <path d="M 222.651 7.783 C 216.36 5.832 182.298 98.723 182.298 98.723 L 245.964 118.074 C 245.964 118.074 229.834 10.011 222.651 7.783 Z" opacity="1" style="fill: rgb(255, 255, 255);"/>
  <path d="M 164.884 282.87 C 171.734 271.575 151.558 259.519 137.213 263.569 C 112.202 270.632 50.552 321.792 47.656 335.024 C 45.775 343.621 86.478 373.788 95.217 370.524 C 114.156 363.451 153.422 301.77 164.884 282.87 Z" opacity="1" fill="#000000"/>
  <path d="M 226.177 77.151 C 225.862 77.827 241.834 80.432 243.863 83.769 C 244.492 84.805 229.299 17.947 228.187 14.199 C 227.702 12.565 237.112 64.313 226.177 77.151 Z" fill-opacity="0.123716" fill="#000000" opacity="1"/>
  <path d="M 161.987 288.455 C 168.837 277.159 149.508 262.971 135.163 267.021 C 110.153 274.083 53.302 326.564 52.308 335.106 C 51.154 345.028 86.703 371.149 93.475 367.827 C 132.255 348.804 150.526 307.354 161.987 288.455 Z" opacity="1" style="fill: rgb(180, 175, 96);"/>
  <path d="M 116.659 234.237 L 263.633 225.493 C 263.633 225.493 256.323 323.561 263.608 346.309 C 270.893 369.056 266.466 379.797 258.704 394.294 C 257.027 397.427 191.121 405.199 180.589 406.249 C 170.057 407.298 107.278 405.448 103.115 397.856 C 80.212 356.082 116.659 234.237 116.659 234.237 Z" opacity="1" fill="#000000"/>
  <path d="M 119.115 228.973 L 255.21 227.142 C 255.21 227.142 216.307 303.092 258.147 354.106 C 270 368.557 195.492 415.938 189.267 401.384 C 188.637 399.909 205.732 397.165 204.96 396.078 C 204.078 394.835 192.101 394.149 179.94 393.894 C 167.165 393.626 154.187 393.833 153.654 394.37 C 152.505 395.53 174.632 398.682 173.853 400.666 C 167.645 416.484 113.076 395.6 109.248 389.962 C 85.123 354.43 119.115 228.973 119.115 228.973 Z" opacity="1" style="fill: rgb(218, 213, 125);"/>
  <path d="M 100.633 318.636 L 143.822 322.941 C 143.822 322.941 119.753 328.105 113.635 347.455 C 107.518 366.805 107.479 399.641 107.479 399.641 C 107.479 399.641 100.34 394.016 98.628 373.765 C 96.917 353.514 100.633 318.636 100.633 318.636 Z" fill-opacity="0.0737799" fill="#000000" opacity="1"/>
  <path d="M 240.448 258.518 C 241.548 245.867 269.277 245.467 278.798 255.844 C 295.397 273.936 306.135 345.884 299.285 357.701 C 291.551 371.045 247.481 370.947 240.172 362.606 C 227.529 348.177 238.609 279.684 240.448 258.518 Z" opacity="1" fill="#000000"/>
  <path d="M 234.013 263.529 C 235.112 250.878 267.436 248.456 276.957 258.833 C 293.557 276.925 300.022 346.056 295.699 353.566 C 290.678 362.289 250.059 370.71 242.412 358.435 C 234.764 346.16 232.174 284.695 234.013 263.529 Z" opacity="1" style="fill: rgb(255, 255, 255);"/>
  <path d="M 233.227 267.053 C 234.327 254.403 263.78 249.911 273.301 260.288 C 289.901 278.38 300.947 349.08 296.624 356.59 C 291.603 365.313 250.059 370.71 242.412 358.435 C 234.764 346.16 231.388 288.22 233.227 267.053 Z" opacity="1" style="fill: rgb(218, 213, 125);"/>
  <path d="M 220.861 67.983 C 122.152 33.82 127.506 127.559 113.832 140.282 C 88.601 163.758 57.288 131.233 21.06 168.407 C -16.764 207.218 -4.953 291.749 67.182 310.937 C 162.347 336.252 198.401 319.863 247.497 277.155 C 309.175 223.503 308.757 98.404 220.861 67.983 Z" opacity="1" fill="#000000"/>
  <path d="M 222.531 76.274 C 122.125 42.113 134.809 126.605 117.974 141.46 C 81.696 173.471 61.616 133.29 25.95 171.855 C -7.462 207.981 -4.137 280.6 57.999 303.542 C 120.135 326.485 197.052 313.929 246.886 271.216 C 309.491 217.558 306.912 104.983 222.531 76.274 Z" opacity="1" fill="#000000"/>
  <path d="M 223.329 74.629 C 125.457 36.131 134.303 126.605 117.534 141.46 C 81.397 173.471 61.396 133.29 25.868 171.855 C -7.414 207.981 -4.101 280.6 57.792 303.542 C 119.686 326.485 202.561 321.12 248.782 274.924 C 285.491 238.234 287.834 181.681 285.376 159.551 C 280.913 119.374 264.104 90.669 223.329 74.629 Z" opacity="1" style="fill: rgb(255, 255, 255);"/>
  <path d="M 223.671 78.845 C 122.472 45.425 135.836 130.884 118.868 145.416 C 82.303 176.733 62.065 137.424 26.116 175.152 C -7.56 210.494 -4.208 281.536 58.419 303.981 C 98.749 318.435 140.983 329.215 180.554 320.827 C 186.698 319.525 195.684 314.796 201.517 312.68 C 216.453 307.263 230.238 299.065 242.213 287.494 C 279.356 251.601 289.391 187.231 286.175 165.669 C 282.911 143.789 268.057 93.503 223.671 78.845 Z" opacity="1" style="fill: rgb(218, 213, 125);"/>
  <path d="M 19.143 179.16 C -13.858 211.687 -0.206 286.476 61.183 307.149 C 122.573 327.822 180.568 317.619 229.793 279.163 C 243.101 268.767 279.455 221.175 262.023 229.639 C 209.427 255.175 141.774 223.611 118.661 192.645 C 95.548 161.679 32.041 166.447 19.143 179.16 Z" fill-opacity="0.0737799" fill="#000000" opacity="1"/>
  <path d="M 87.726 251.058 L 41.403 251.179 C 41.403 251.179 29.347 251.791 29.012 254.654 C 28.409 259.822 41.559 258.944 41.559 258.944 C 41.559 258.944 43.415 283.943 48.435 287.828 C 51.598 290.275 80.067 295.341 87.245 289.276 C 90.268 286.721 88.462 258.832 88.462 258.832 C 88.462 258.832 101.506 259.077 101.42 255.163 C 101.305 249.964 87.726 251.058 87.726 251.058 Z" opacity="1" fill="#000000"/>
  <path d="M 83.477 258.679 C 83.477 258.679 44.803 256.826 45.7 260.086 C 46.792 264.063 47.387 280.703 50.703 284.726 C 54.345 289.145 80.933 290.376 83.895 288.517 C 87.239 286.417 83.477 258.679 83.477 258.679 Z" opacity="1" fill="#ffffff"/>
  <path d="M 132.819 248.963 L 92.163 250.815 C 92.163 250.815 82.589 252.285 82.385 254.724 C 82.017 259.125 93.145 257.978 93.145 257.978 C 93.145 257.978 95.414 279.123 99.779 282.264 C 102.53 284.243 126.815 287.669 132.735 282.305 C 135.227 280.046 132.92 256.448 132.92 256.448 C 132.92 256.448 143.99 256.257 143.808 252.94 C 143.567 248.535 132.819 248.963 132.819 248.963 Z" opacity="1" fill="#000000"/>
  <path d="M 127.831 256.452 C 127.831 256.452 95.838 256.082 96.688 258.82 C 97.726 262.159 98.513 275.788 101.438 279.098 C 104.649 282.734 127.411 283.432 129.872 281.764 C 132.65 279.881 127.831 256.452 127.831 256.452 Z" opacity="1" fill="#f6f6f6"/>
  <path d="M 100.867 197.641 C 100.867 190.968 95.582 185.953 89.288 185.953 C 82.994 185.953 79.278 191.762 79.278 198.435 C 79.278 205.109 82.994 210.121 89.288 210.121 C 95.582 210.121 100.867 204.315 100.867 197.641 Z" opacity="1" fill="#000000"/>
  <path d="M 97.231 197.203 C 97.231 195.455 96.883 193.933 96.204 192.717 C 95.096 190.735 93.107 189.567 90.309 189.567 C 85.794 189.567 82.133 193.291 82.133 197.886 C 82.133 202.481 85.794 206.206 90.309 206.206 C 94.824 206.206 97.231 201.798 97.231 197.203 Z" opacity="1" style="fill: rgb(140, 136, 78);"/>
  <path d="M 23.803 190.673 C 23.803 184.421 20.674 180.557 17.541 180.206 C 12.424 179.631 11.357 179.157 7.401 190.988 C 3.446 202.819 9.359 202.963 14.515 202.963 C 19.67 202.963 23.803 196.925 23.803 190.673 Z" opacity="1" fill="#000000"/>
  <path d="M 20.635 192.695 C 20.635 187.914 20.676 185.492 19.059 184.732 C 17.261 183.887 14.042 186.198 12.52 191.16 C 10.512 197.706 9.18 200.349 13.574 200.349 C 17.967 200.349 20.635 197.475 20.635 192.695 Z" opacity="1" style="fill: rgb(140, 136, 78);"/>
  <path d="M 234.736 111.592 C 234.736 110.254 233.598 109.17 232.194 109.17 C 230.791 109.17 229.652 110.254 229.652 111.592 C 229.652 112.929 230.791 114.013 232.194 114.013 C 233.598 114.013 234.736 112.929 234.736 111.592 Z" opacity="1" fill="#ffffff"/>
  <path d="M 225.555 112.66 C 225.555 107.72 221.326 103.716 217.096 103.716 C 212.867 103.716 208.638 108.188 208.638 112.66 C 208.638 117.133 212.425 121.605 217.096 121.605 C 221.768 121.605 225.555 117.6 225.555 112.66 Z" opacity="1" fill="#ffffff"/>
  <path d="M 285.091 192.61 C 285.091 192.61 281.851 223.708 276.894 237.203 C 271.937 250.698 249.297 278.559 246.645 278.149 C 244.469 277.812 264.592 253.312 272.452 235.81 C 282.52 213.39 285.091 192.61 285.091 192.61 Z" opacity="1" fill="#000000"/>
  <path d="M 234.661 315.321 C 235.521 315.183 235.775 324.947 237.009 333.964 C 238.244 342.982 239.599 351.391 239.599 351.391 L 235.821 350.659 C 235.821 350.659 231.752 315.788 234.661 315.321 Z" opacity="1" fill="#000000"/>
  <path d="M 75.314 309.644 C 75.314 309.644 93.608 315.464 124.721 319.382 C 142.877 321.668 147.029 321.04 147.424 321.72 C 148.953 324.354 143.116 324.268 125.867 322.802 C 111.681 321.597 81.875 314.358 81.875 314.358 L 75.314 309.644 Z" opacity="1" fill="#000000"/>
  <path d="M 160.989 3.592 C 151.685 8.874 164.612 78.274 167.407 87.535 C 171.773 101.998 214.498 78.175 212.834 69.854 C 211.466 63.011 167.05 0.15 160.989 3.592 Z" opacity="1" fill="#000000"/>
  <path d="M 163.087 10.432 C 159.058 11.703 165.222 76.141 170.827 85.295 C 176.504 94.566 212.982 76.193 207.48 66.81 C 200.513 54.929 167.689 8.98 163.087 10.432 Z" opacity="1" style="fill: rgb(255, 255, 255);"/>
  <path d="M 274.551 115.675 C 274.054 116.3 279.01 127.662 279.817 131.654 C 280.067 132.893 308.412 75.778 308.412 75.778 C 308.412 75.778 288.5 105.061 274.551 115.675 Z" fill-opacity="0.123716" fill="#000000" opacity="1"/>
  <path d="M 201.575 52.64 C 201.575 52.64 199.671 81.358 172.799 89.723 C 182.31 92.205 205.248 79.437 209.699 70.783 L 201.575 52.64 Z" fill-opacity="0.123716" fill="#000000" opacity="1"/>
  <path d="M 200.835 107.87 L 169.676 107.87 L 169.676 120.775 L 200.835 120.775 L 200.835 107.87 Z" opacity="1" fill="#000000"/>
  <path d="M 135.537 108.244 L 126.292 108.244 L 126.292 117.083 L 135.537 117.083 L 135.537 108.244 Z" opacity="1" fill="#000000"/>
  <path d="M 194.662 110.901 C 192.293 109.95 176.463 110.607 174.962 111.405 C 173.461 112.203 173.751 115.878 175.06 117.078 C 176.369 118.278 191.687 118.676 193.294 117.58 C 194.9 116.484 197.032 111.852 194.662 110.901 Z" opacity="1" fill="#ffffff"/>
  <path d="M 274.238 117.523 C 274.238 117.523 145.844 94.77 123.049 124.696 C 113.554 137.16 173.878 144.41 173.878 144.41 C 173.878 144.41 175.334 130.876 180.593 130.864 C 186.99 130.849 183.997 147.059 197.516 148.57 C 211.034 150.081 232.546 142.405 236.21 137.623 C 244.789 126.423 274.238 117.523 274.238 117.523 Z" fill-opacity="0.149032" fill="#000000" opacity="1"/>
  <path d="M 239.226 105.955 C 229.443 101.75 206.439 101.231 188.864 102.414 C 183.83 102.753 183.744 131.062 187.365 143.604 C 190.019 152.8 230.654 152.445 235.392 147.49 C 246.29 136.092 244.672 108.296 239.226 105.955 Z" opacity="1" fill="#000000"/>
  <path d="M 234.33 107.636 C 224.546 103.431 195.566 102.802 191.894 106.069 C 186.648 110.736 186.394 128.99 190.014 141.531 C 192.669 150.727 228.597 148.811 233.334 143.856 C 244.232 132.459 239.776 109.977 234.33 107.636 Z" opacity="1" fill="#ffffff"/>
  <path d="M 232.383 109.744 C 222.599 105.538 197.26 105.954 193.994 108.721 C 190.593 111.603 188.091 128.644 191.969 141.14 C 193.662 146.597 226.298 148.182 230.823 143.11 C 238.125 134.925 237.829 112.085 232.383 109.744 Z" opacity="1" fill="#000000"/>
  <path d="M 271.042 110.148 L 239.442 109.956 L 242.617 123.104 L 277.285 121.101 L 271.042 110.148 Z" opacity="1" fill="#000000"/>
  <path d="M 270.778 112.681 C 262.318 113.02 243.12 112.251 243.12 112.251 C 243.12 112.251 243.595 113.989 243.96 115.542 C 244.325 117.096 244.582 120.411 244.582 120.411 C 247.943 121.001 265.436 118.888 273.272 118.007 C 274.956 117.817 272.342 112.618 270.778 112.681 Z" opacity="1" fill="#ffffff"/>
  <path d="M 230.426 141.363 C 230.426 141.363 224.133 133.864 214.337 125.238 C 204.542 116.611 201.66 111.707 198.776 109.434 C 195.893 107.161 193.274 114.183 193.274 114.183 C 193.274 114.183 198.243 121.684 207.6 130.229 C 216.956 138.774 221.311 142.76 223.346 143.41 C 228.912 145.188 230.426 141.363 230.426 141.363 Z" opacity="1" fill="#ffffff"/>
  <path d="M 221.533 144.539 C 221.533 144.539 215.623 141.236 205.828 132.609 C 196.032 123.983 192.166 117.311 192.166 117.311 L 191.661 123.464 C 191.661 123.464 192.702 126.631 202.059 135.176 C 211.415 143.721 215.529 145.223 215.529 145.223 L 221.533 144.539 Z" opacity="1" fill="#ffffff"/>
  <path d="M 125.004 104.783 C 134.787 100.578 155.669 100.063 173.243 101.246 C 178.277 101.585 178.363 129.894 174.743 142.435 C 172.088 151.631 131.453 151.276 126.716 146.322 C 115.818 134.924 119.558 107.124 125.004 104.783 Z" opacity="1" fill="#000000"/>
  <path d="M 127.778 106.468 C 137.561 102.262 166.542 101.634 170.213 104.9 C 175.46 109.568 175.714 127.821 172.093 140.363 C 169.439 149.559 133.51 147.642 128.773 142.688 C 117.875 131.29 122.332 108.809 127.778 106.468 Z" opacity="1" fill="#ffffff"/>
  <path d="M 129.725 108.575 C 139.508 104.37 164.847 104.786 168.113 107.553 C 171.514 110.435 174.017 127.476 170.139 139.971 C 168.445 145.429 135.809 147.013 131.284 141.942 C 123.982 133.757 124.279 110.916 129.725 108.575 Z" opacity="1" fill="#000000"/>
  <path d="M 168.815 136.927 C 165.98 135.423 163.193 132.696 153.397 124.069 C 143.602 115.443 140.744 111.919 137.861 109.646 C 134.978 107.373 129.06 111 129.06 111 C 129.06 111 137.303 120.515 146.66 129.061 C 156.016 137.606 159.447 140.44 161.482 141.09 C 167.048 142.868 170.526 137.835 168.815 136.927 Z" opacity="1" fill="#ffffff"/>
  <path d="M 158.849 141.917 C 158.849 141.917 154.683 140.067 144.888 131.441 C 135.092 122.814 128.383 113.182 128.383 113.182 L 127.029 117.168 C 127.029 117.168 131.762 125.462 141.118 134.008 C 150.475 142.553 153.057 142.895 153.057 142.895 L 158.849 141.917 Z" opacity="1" fill="#ffffff"/>
  <path d="M 266.736 247.249 C 255.191 260.108 191.444 347.595 163.883 344.866 C 149.081 343.401 130.548 321.146 128.746 321.413 L 115.579 319.698 C 111.482 320.568 144.622 360.164 164.335 363.68 C 180.153 366.5 247.153 295.066 268.796 267.991 C 286.617 245.697 271.522 241.918 266.736 247.249 Z" opacity="1" fill="#000000"/>
  <path d="M 267.605 251.042 C 263.294 257.678 191.359 352.39 163.798 349.662 C 148.996 348.197 127.366 322.173 125.564 322.44 L 119.028 320.554 C 114.931 321.424 155.788 360.689 158.279 362.173 C 172.082 370.396 252.252 287.277 271.575 258.501 C 276.649 250.945 271.917 244.406 267.605 251.042 Z" opacity="1" fill="#ffffff"/>
  <path d="M 201.132 366.112 L 192.718 341.538 L 166.162 331.488 L 137.972 344.624 L 128.466 366.641 L 142.681 394.468 L 165.717 404.362 L 189.851 394.385 L 201.132 366.112 Z" opacity="1" fill="#000000"/>
  <path d="M 197.311 366.373 L 189.592 344.237 L 165.459 334.035 L 140.303 346.689 L 130.929 366.577 L 142.491 390.757 L 164.584 400.541 L 187.945 392.318 L 197.311 366.373 Z" opacity="1" fill="#ffffff"/>
  <path d="M 194.256 366.523 L 186.625 346.036 L 164.847 337.845 L 140.812 349.107 L 133.482 367.061 L 143.877 387.152 L 163.172 396.528 L 184.691 388.211 L 194.256 366.523 Z" opacity="1" fill="#000000"/>
  <path d="M 182.444 348.275 L 164.21 342.175 L 145.251 349.73 L 165.014 364.896 L 182.444 348.275 Z" opacity="1" fill="#608db1"/>
  <path d="M 162.936 367.192 L 142.364 352.52 L 137.284 367.506 L 144.442 383.781 L 162.936 367.192 Z" opacity="1" fill="#d67474"/>
  <path d="M 181.876 386.952 L 165.795 370.112 L 147.424 385.721 L 163.496 392.287 L 181.876 386.952 Z" opacity="1" fill="#629b6b"/>
  <path d="M 190.627 368.178 L 185.961 351.374 L 168.09 367.743 L 183.404 384.189 L 190.627 368.178 Z" opacity="1" fill="#c6c065"/>
  <path d="M 162.936 367.192 L 142.364 352.52 L 159.14 367.944 L 144.442 383.781 L 162.936 367.192 Z" fill-opacity="0.699332" fill="#f8f8f8" opacity="1"/>
  <path d="M 171.554 367.501 L 185.961 351.374 L 168.09 367.743 L 183.404 384.189 L 171.554 367.501 Z" fill-opacity="0.587291" fill="#ffffff" opacity="1"/>
  <path d="M 182.444 348.275 L 165.449 361.765 L 145.251 349.73 L 165.014 364.896 L 182.444 348.275 Z" fill-opacity="0.572383" fill="#ffffff" opacity="1"/>
  <path d="M 181.876 386.952 L 165.795 370.112 L 147.424 385.721 L 165.789 373.729 L 181.876 386.952 Z" fill-opacity="0.429844" fill="#ffffff" opacity="1"/>
  <path d="M 271.292 70.078 C 266.856 62.073 255.568 59.032 247.785 64.558 C 240.003 70.085 238.079 82.442 242.506 90.453 C 246.933 98.465 257.97 101.502 265.753 95.975 C 273.535 90.449 277.303 80.928 271.292 70.078 Z" opacity="1" fill="#000000"/>
  <path d="M 268.695 74.317 C 263.105 62.471 253.724 64.633 248.209 70.099 C 235.448 82.746 239.422 94.46 241.808 98.777 C 244.243 103.184 264.277 99.639 257.427 99.075 C 250.503 98.505 257.612 95.986 260.066 94.911 C 266.838 91.945 272.701 82.806 268.695 74.317 Z" opacity="1" style="fill: rgb(218, 213, 125);"/>
  <path d="M 260.423 78.329 C 258.056 74.046 253.012 72.793 249.156 75.531 C 245.3 78.269 244.093 83.961 246.46 88.244 C 248.827 92.528 253.871 93.781 257.727 91.043 C 261.583 88.305 262.79 82.613 260.423 78.329 Z" opacity="1" fill="#000000"/>
  <path d="M 263.604 77.67 C 259.72 77.822 262.911 83.659 260.846 83.871 C 258.045 84.159 255.002 76.407 250.731 79.569 C 248.923 80.908 249.186 85.968 247.62 87.804 C 245.894 89.83 245.494 83.198 244.431 84.084 C 237.228 90.087 255.446 97.819 259.302 95.081 C 263.158 92.343 268.494 77.478 263.604 77.67 Z" opacity="1" style="fill: rgb(218, 213, 125);"/>
  <path d="M 299.052 319.908 C 286.372 323.252 243.596 328.648 233.754 328.038 C 231.29 327.885 231.552 339.954 236.49 344.676 C 239.498 347.552 290.529 349.008 301.71 336.881 C 303.731 334.689 304.182 318.555 299.052 319.908 Z" opacity="1" fill="#000000"/>
  <path d="M 298.216 322.785 C 281.475 326.639 245.936 330.02 236.082 330.391 C 232.756 330.516 235.774 338.103 236.595 341.225 C 237.653 345.25 288.345 347.172 299.526 335.044 C 301.546 332.853 300.001 322.375 298.216 322.785 Z" opacity="1" fill="#ffffff"/>
  <path d="M 294.084 334.285 C 294.084 326.929 288.033 320.966 280.568 320.966 C 273.103 320.966 267.052 326.929 267.052 334.285 C 267.052 341.641 273.103 347.604 280.568 347.604 C 288.033 347.604 294.084 341.641 294.084 334.285 Z" opacity="1" fill="#000000"/>
  <path d="M 291.166 334.282 C 291.28 329.849 286.82 322.401 281.126 322.938 C 276.161 323.406 271.024 326.792 271.024 334.148 C 271.024 341.504 275.868 345.014 280.514 345.359 C 285.044 345.694 290.983 341.465 291.166 334.282 Z" opacity="1" fill="#ffffff"/>
  <path d="M 289.66 334.032 C 289.66 328.534 286.129 324.077 281.773 324.077 C 277.418 324.077 273.887 328.534 273.887 334.032 C 273.887 339.53 277.418 343.986 281.773 343.986 C 286.129 343.986 289.66 339.53 289.66 334.032 Z" fill-opacity="0.879733" fill="#000000" opacity="1"/>
  <path d="M 287.147 334.269 C 287.147 329.937 284.598 326.426 281.454 326.426 C 278.31 326.426 275.762 329.937 275.762 334.269 C 275.762 338.6 278.31 342.111 281.454 342.111 C 284.598 342.111 287.147 338.6 287.147 334.269 Z" opacity="1" fill="#ffffff"/>
  <path d="M 284.162 332.789 C 283.505 331.483 281.87 330.979 280.511 331.663 C 279.152 332.347 278.583 333.96 279.24 335.265 C 279.432 335.647 278.4 338.989 277.846 341.267 C 277.564 342.427 278.412 342.789 279.109 341.8 C 280.51 339.812 282.383 336.646 282.89 336.391 C 284.25 335.707 284.819 334.094 284.162 332.789 Z" opacity="1" fill="#000000"/>
  <path d="M 283.486 334.997 C 284.031 333.608 283.357 332.604 281.911 332.211 C 280.464 331.818 280.201 331.304 279.655 332.694 C 279.547 332.969 276.948 335.582 275.318 336.543 C 275.318 336.543 273.468 338.694 275.718 338.127 C 277.666 337.636 280.718 335.983 281.094 336.084 C 282.54 336.477 282.94 336.387 283.486 334.997 Z" opacity="1" fill="#000000"/>
</svg>